<svg preserveAspectRatio="none" width="100%" height="100%" overflow="visible" style="display: block;" viewBox="0 0 14 15" fill="none" xmlns="http://www.w3.org/2000/svg">
<path id="Icon" d="M12.4929 13.9455C12.4929 12.9318 12.4929 12.425 12.3678 12.0126C12.0861 11.0841 11.3595 10.3574 10.431 10.0758C10.0186 9.95066 9.51174 9.95066 8.4981 9.95066H4.86648C3.85284 9.95066 3.34602 9.95066 2.93362 10.0758C2.00508 10.3574 1.27846 11.0841 0.996786 12.0126C0.871684 12.425 0.871684 12.9318 0.871684 13.9455M9.95076 4.14006C9.95076 5.94518 8.48741 7.40852 6.68229 7.40852C4.87717 7.40852 3.41382 5.94518 3.41382 4.14006C3.41382 2.33493 4.87717 0.871591 6.68229 0.871591C8.48741 0.871591 9.95076 2.33493 9.95076 4.14006Z" stroke="var(--stroke-0, #1246FF)" stroke-width="1.74318" stroke-linecap="round" stroke-linejoin="round"/>
</svg>
