<svg preserveAspectRatio="none" width="100%" height="100%" overflow="visible" style="display: block;" viewBox="0 0 12 15" fill="none" xmlns="http://www.w3.org/2000/svg">
<path id="Icon" d="M7.16667 6.5H3.16667M4.5 9.16667H3.16667M8.5 3.83333H3.16667M11.1667 3.7V10.6333C11.1667 11.7534 11.1667 12.3135 10.9487 12.7413C10.7569 13.1176 10.451 13.4236 10.0746 13.6153C9.64682 13.8333 9.08677 13.8333 7.96667 13.8333H3.7C2.5799 13.8333 2.01984 13.8333 1.59202 13.6153C1.2157 13.4236 0.909734 13.1176 0.717987 12.7413C0.5 12.3135 0.5 11.7534 0.5 10.6333V3.7C0.5 2.5799 0.5 2.01984 0.717987 1.59202C0.909734 1.2157 1.2157 0.909734 1.59202 0.717987C2.01984 0.5 2.5799 0.5 3.7 0.5H7.96667C9.08677 0.5 9.64682 0.5 10.0746 0.717987C10.451 0.909734 10.7569 1.2157 10.9487 1.59202C11.1667 2.01984 11.1667 2.5799 11.1667 3.7Z" stroke="var(--stroke-0, #535353)" stroke-linecap="round" stroke-linejoin="round"/>
</svg>
