<svg preserveAspectRatio="none" width="100%" height="100%" overflow="visible" style="display: block;" viewBox="0 0 16 16" fill="none" xmlns="http://www.w3.org/2000/svg">
<g id="Gitbook--Streamline-Simple-Icons" clip-path="url(#clip0_230_723)">
<path id="Vector" d="M8.342 0.731333C7.912 0.731333 7.52 0.958 6.73733 1.40933L2.45 3.88C1.71175 4.29708 1.09653 4.90145 0.666387 5.63217C0.236244 6.36288 0.00638788 7.1941 0 8.042L0 8.19933C0.00643534 9.04614 0.235763 9.87631 0.664912 10.6063C1.09406 11.3364 1.7079 11.9405 2.44467 12.358L5.12667 13.9067C6.696 14.8133 7.48067 15.268 8.34267 15.268C9.204 15.2687 9.98933 14.816 11.5593 13.9093L14.3933 12.274C15.178 11.8207 15.5693 11.594 15.7847 11.2213C16 10.848 16.0007 10.3947 16 9.488V7.73467C16.0001 7.61302 15.9683 7.49349 15.9076 7.38806C15.8469 7.28263 15.7596 7.19501 15.6543 7.13402C15.5491 7.07302 15.4297 7.04078 15.308 7.04055C15.1864 7.04031 15.0668 7.07208 14.9613 7.13267L9.14267 10.482C8.75133 10.7067 8.556 10.82 8.342 10.82C8.12667 10.82 7.93133 10.708 7.53933 10.4827L3.60333 8.22067C3.40533 8.10667 3.306 8.05 3.22667 8.04C3.13905 8.02877 3.05017 8.04672 2.97377 8.09106C2.89737 8.13541 2.83771 8.20368 2.804 8.28533C2.774 8.35933 2.774 8.47333 2.77533 8.702C2.77667 8.87 2.77533 8.954 2.792 9.03133C2.82733 9.204 2.918 9.36 3.05 9.476C3.10933 9.52733 3.182 9.56933 3.32733 9.65333L7.53733 12.0867C7.93 12.3133 8.12667 12.4267 8.342 12.4267C8.558 12.4267 8.75333 12.3133 9.146 12.0873L14.306 9.108C14.4407 9.03067 14.5073 8.99333 14.5573 9.02133C14.6073 9.05067 14.6073 9.128 14.6073 9.28267V10.078C14.6073 10.3047 14.608 10.418 14.554 10.5107C14.5007 10.604 14.4027 10.66 14.206 10.7733L9.95133 13.23C9.166 13.6833 8.77333 13.91 8.34267 13.91C7.912 13.91 7.51867 13.6833 6.73467 13.2287L2.75467 10.9273L2.726 10.9107C2.3161 10.6706 1.97572 10.328 1.73832 9.91659C1.50092 9.50515 1.37468 9.03901 1.372 8.564V7.8C1.372 7.266 1.65667 6.77267 2.11867 6.504C2.31941 6.38773 2.54726 6.32645 2.77924 6.32633C3.01123 6.32621 3.23914 6.38727 3.44 6.50333L6.73733 8.40867C7.52 8.86133 7.912 9.088 8.342 9.08867C8.772 9.08867 9.164 8.862 9.94867 8.41067L14.9367 5.54C15.0474 5.47622 15.1395 5.38438 15.2034 5.27372C15.2674 5.16306 15.3011 5.03749 15.3011 4.90967C15.3011 4.78184 15.2674 4.65627 15.2034 4.54561C15.1395 4.43495 15.0474 4.34311 14.9367 4.27933L9.94667 1.40667C9.16333 0.956667 8.772 0.731333 8.34267 0.731333H8.342Z" fill="var(--fill-0, #868686)"/>
</g>
<defs>
<clipPath id="clip0_230_723">
<rect width="16" height="16" fill="white"/>
</clipPath>
</defs>
</svg>
