<svg preserveAspectRatio="none" width="100%" height="100%" overflow="visible" style="display: block;" viewBox="0 0 12 15" fill="none" xmlns="http://www.w3.org/2000/svg">
<path id="Icon" d="M7.33333 0.846396V3.60009C7.33333 3.97346 7.33333 4.16014 7.406 4.30275C7.46991 4.42819 7.5719 4.53018 7.69734 4.59409C7.83995 4.66676 8.02663 4.66676 8.4 4.66676H11.1537M7.33333 10.6667H3.33333M8.66667 8.00004H3.33333M11.3333 5.99219V10.8C11.3333 11.9201 11.3333 12.4802 11.1153 12.908C10.9236 13.2843 10.6176 13.5903 10.2413 13.7821C9.81349 14 9.25344 14 8.13333 14H3.86667C2.74656 14 2.18651 14 1.75869 13.7821C1.38236 13.5903 1.0764 13.2843 0.884654 12.908C0.666667 12.4802 0.666667 11.9201 0.666667 10.8V3.86671C0.666667 2.7466 0.666667 2.18655 0.884654 1.75873C1.0764 1.3824 1.38236 1.07644 1.75869 0.884696C2.18651 0.666709 2.74656 0.666709 3.86667 0.666709H6.00785C6.49703 0.666709 6.74162 0.666709 6.9718 0.721969C7.17587 0.770962 7.37096 0.851771 7.5499 0.961428C7.75174 1.08511 7.92469 1.25806 8.27059 1.60397L10.3961 3.72945C10.742 4.07535 10.9149 4.24831 11.0386 4.45014C11.1483 4.62908 11.2291 4.82417 11.2781 5.02825C11.3333 5.25842 11.3333 5.50301 11.3333 5.99219Z" stroke="var(--stroke-0, #868686)" stroke-width="1.33333" stroke-linecap="round" stroke-linejoin="round"/>
</svg>
