<svg preserveAspectRatio="none" width="100%" height="100%" overflow="visible" style="display: block;" viewBox="0 0 12 13" fill="none" xmlns="http://www.w3.org/2000/svg">
<path id="Icon" d="M11.1667 12.5C11.1667 11.5696 11.1667 11.1044 11.0519 10.7259C10.7933 9.87363 10.1264 9.20669 9.27412 8.94816C8.89559 8.83333 8.4304 8.83333 7.50002 8.83333H4.1667C3.23632 8.83333 2.77113 8.83333 2.3926 8.94816C1.54033 9.20669 0.873388 9.87363 0.614854 10.7259C0.500027 11.1044 0.500027 11.5696 0.500027 12.5M8.83336 3.5C8.83336 5.15685 7.49021 6.5 5.83336 6.5C4.17651 6.5 2.83336 5.15685 2.83336 3.5C2.83336 1.84315 4.17651 0.5 5.83336 0.5C7.49021 0.5 8.83336 1.84315 8.83336 3.5Z" stroke="var(--stroke-0, #535353)" stroke-linecap="round" stroke-linejoin="round"/>
</svg>
