<svg preserveAspectRatio="none" width="100%" height="100%" overflow="visible" style="display: block;" viewBox="0 0 15 13" fill="none" xmlns="http://www.w3.org/2000/svg">
<path id="Icon" d="M9.83333 3.1667C9.83333 2.54672 9.83333 2.23673 9.76519 1.98239C9.58025 1.29221 9.04116 0.753116 8.35097 0.568181C8.09664 0.500033 7.78665 0.500033 7.16667 0.500033C6.54669 0.500033 6.2367 0.500033 5.98236 0.568181C5.29218 0.753116 4.75308 1.29221 4.56815 1.98239C4.5 2.23673 4.5 2.54672 4.5 3.1667M2.63333 12.5H11.7C12.4467 12.5 12.8201 12.5 13.1053 12.3547C13.3562 12.2269 13.5602 12.0229 13.688 11.772C13.8333 11.4868 13.8333 11.1134 13.8333 10.3667V5.30003C13.8333 4.5533 13.8333 4.17993 13.688 3.89471C13.5602 3.64383 13.3562 3.43986 13.1053 3.31202C12.8201 3.1667 12.4467 3.1667 11.7 3.1667H2.63333C1.8866 3.1667 1.51323 3.1667 1.22801 3.31202C0.97713 3.43986 0.773156 3.64383 0.645325 3.89471C0.500001 4.17993 0.500001 4.5533 0.500001 5.30003V10.3667C0.500001 11.1134 0.500001 11.4868 0.645325 11.772C0.773156 12.0229 0.97713 12.2269 1.22801 12.3547C1.51323 12.5 1.8866 12.5 2.63333 12.5Z" stroke="var(--stroke-0, #535353)" stroke-linecap="round" stroke-linejoin="round"/>
</svg>
