<svg preserveAspectRatio="none" width="100%" height="100%" overflow="visible" style="display: block;" viewBox="0 0 15 13" fill="none" xmlns="http://www.w3.org/2000/svg">
<path id="Icon" d="M13.8333 12.5V11.1667C13.8333 9.92411 12.9835 8.88004 11.8333 8.58401M9.5 0.693839C10.4773 1.08943 11.1667 2.04754 11.1667 3.16667C11.1667 4.28579 10.4773 5.2439 9.5 5.63949M10.5 12.5C10.5 11.2575 10.5 10.6362 10.297 10.1462C10.0264 9.49277 9.50723 8.97364 8.85382 8.70299C8.36377 8.5 7.74251 8.5 6.5 8.5H4.5C3.25749 8.5 2.63623 8.5 2.14618 8.70299C1.49277 8.97364 0.973639 9.49277 0.702988 10.1462C0.5 10.6362 0.5 11.2575 0.5 12.5M8.16667 3.16667C8.16667 4.63943 6.97276 5.83333 5.5 5.83333C4.02724 5.83333 2.83333 4.63943 2.83333 3.16667C2.83333 1.69391 4.02724 0.5 5.5 0.5C6.97276 0.5 8.16667 1.69391 8.16667 3.16667Z" stroke="var(--stroke-0, #535353)" stroke-linecap="round" stroke-linejoin="round"/>
</svg>
