<svg preserveAspectRatio="none" width="100%" height="100%" overflow="visible" style="display: block;" viewBox="0 0 13 13" fill="none" xmlns="http://www.w3.org/2000/svg">
<g id="Star" clip-path="url(#clip0_238_189)">
<path id="Star_2" d="M5.81947 0.982261C5.92368 0.73172 6.2786 0.73172 6.3828 0.982261L7.64335 4.01299C7.68728 4.11861 7.78661 4.19078 7.90064 4.19992L11.1726 4.46223C11.443 4.48391 11.5527 4.82146 11.3466 4.99799L8.85378 7.13339C8.7669 7.20781 8.72896 7.32457 8.75551 7.43585L9.51712 10.6287C9.58008 10.8926 9.29294 11.1012 9.06137 10.9598L6.26015 9.24883C6.16252 9.1892 6.03975 9.1892 5.94212 9.24883L3.1409 10.9598C2.90933 11.1012 2.6222 10.8926 2.68516 10.6287L3.44677 7.43585C3.47331 7.32457 3.43537 7.20781 3.34849 7.13339L0.855631 4.99799C0.649554 4.82146 0.75923 4.48391 1.02971 4.46223L4.30163 4.19992C4.41566 4.19078 4.51499 4.11861 4.55892 4.01299L5.81947 0.982261Z" fill="var(--fill-0, #F5CC37)"/>
</g>
<defs>
<clipPath id="clip0_238_189">
<rect width="12.2023" height="12.2023" fill="white"/>
</clipPath>
</defs>
</svg>
