<svg preserveAspectRatio="none" width="100%" height="100%" overflow="visible" style="display: block;" viewBox="0 0 17 15" fill="none" xmlns="http://www.w3.org/2000/svg">
<path id="Icon" d="M11.0402 3.777C11.0402 3.10154 11.0402 2.76381 10.9659 2.48671C10.7644 1.73476 10.1771 1.14743 9.42514 0.945943C9.14804 0.871696 8.81031 0.871696 8.13485 0.871696C7.45939 0.871696 7.12166 0.871696 6.84456 0.945943C6.09262 1.14743 5.50528 1.73476 5.30379 2.48671C5.22955 2.76381 5.22955 3.10154 5.22955 3.777M3.19584 13.9456H13.0739C13.8874 13.9456 14.2942 13.9456 14.6049 13.7872C14.8783 13.648 15.1005 13.4257 15.2398 13.1524C15.3981 12.8417 15.3981 12.4349 15.3981 11.6213V6.10124C15.3981 5.28768 15.3981 4.8809 15.2398 4.57016C15.1005 4.29683 14.8783 4.0746 14.6049 3.93533C14.2942 3.777 13.8874 3.777 13.0739 3.777H3.19584C2.38227 3.777 1.97549 3.777 1.66475 3.93533C1.39142 4.0746 1.16919 4.29683 1.02992 4.57016C0.871593 4.8809 0.871593 5.28768 0.871593 6.10124V11.6213C0.871593 12.4349 0.871593 12.8417 1.02992 13.1524C1.16919 13.4257 1.39142 13.648 1.66475 13.7872C1.97549 13.9456 2.38227 13.9456 3.19584 13.9456Z" stroke="var(--stroke-0, #1246FF)" stroke-width="1.74318" stroke-linecap="round" stroke-linejoin="round"/>
</svg>
