<svg preserveAspectRatio="none" width="100%" height="100%" overflow="visible" style="display: block;" viewBox="0 0 11 11" fill="none" xmlns="http://www.w3.org/2000/svg">
<path id="Star background" d="M5.07087 0.187906C5.17508 -0.0626351 5.53 -0.0626353 5.6342 0.187906L6.89475 3.21863C6.93868 3.32425 7.03801 3.39642 7.15204 3.40556L10.424 3.66787C10.6944 3.68955 10.8041 4.0271 10.598 4.20363L8.10518 6.33903C8.0183 6.41345 7.98036 6.53022 8.00691 6.64149L8.76852 9.83433C8.83148 10.0983 8.54434 10.3069 8.31277 10.1654L5.51155 8.45447C5.41393 8.39484 5.29115 8.39484 5.19352 8.45447L2.3923 10.1654C2.16073 10.3069 1.8736 10.0983 1.93656 9.83433L2.69817 6.64149C2.72471 6.53022 2.68677 6.41345 2.59989 6.33903L0.107032 4.20363C-0.0990452 4.0271 0.0106305 3.68955 0.28111 3.66787L3.55303 3.40556C3.66706 3.39642 3.76639 3.32425 3.81032 3.21863L5.07087 0.187906Z" fill="var(--fill-0, #F2F4F7)"/>
</svg>
