<svg viewBox="0 0 12 14.6667" x="0" y="0" fill="none" xmlns="http://www.w3.org/2000/svg"><path id="Icon_19" d="M7.3302,0.8464v2.7537c0,0.3733 0,0.56 0.08,0.7026c0.06,0.1255 0.16,0.2274 0.29,0.2914c0.14,0.0726 0.33,0.0726 0.7,0.0726h2.75M7.3302,10.6667h-4M8.6702,8h-5.34M11.3302,5.9922v4.8078c0,1.1201 0,1.6802 -0.21,2.108c-0.2,0.3763 -0.5,0.6823 -0.88,0.874c-0.43,0.218 -0.99,0.218 -2.11,0.218h-4.26c-1.12,0 -1.68,0 -2.11,-0.218c-0.38,-0.1917 -0.68,-0.4977 -0.88,-0.874c-0.21,-0.4278 -0.21,-0.9879 -0.21,-2.108v-6.9333c0,-1.1201 0,-1.6802 0.21,-2.108c0.2,-0.3763 0.5,-0.6823 0.88,-0.874c0.43,-0.218 0.99,-0.218 2.11,-0.218h2.14c0.49,0 0.73,0 0.96,0.0552c0.21,0.049 0.4,0.1298 0.58,0.2395c0.2,0.1237 0.37,0.2966 0.72,0.6425l2.13,2.1255c0.34,0.3459 0.51,0.5189 0.64,0.7207c0.11,0.1789 0.19,0.374 0.24,0.5781c0.05,0.2302 0.05,0.4748 0.05,0.964z" stroke="#868686" stroke-width="1.33333" stroke-linecap="round" stroke-linejoin="round" xmlns="http://www.w3.org/2000/svg"/></svg>