<svg preserveAspectRatio="none" width="100%" height="100%" overflow="visible" style="display: block;" viewBox="0 0 14 13" fill="none" xmlns="http://www.w3.org/2000/svg">
<g id="Group">
<g id="Vector">
<path d="M8.82768 6.11133C8.17352 6.11133 7.64135 6.64349 7.64135 7.29766C7.64135 7.95199 8.17352 8.48416 8.82768 8.48416C9.48185 8.48416 10.014 7.95183 10.014 7.29766C10.014 6.64349 9.48185 6.11133 8.82768 6.11133ZM8.82768 7.81749C8.68989 7.81732 8.55778 7.76249 8.46036 7.66503C8.36294 7.56758 8.30815 7.43546 8.30802 7.29766C8.30819 7.15989 8.363 7.02781 8.46042 6.9304C8.55784 6.83298 8.68991 6.77817 8.82768 6.77799C8.96545 6.77817 9.09753 6.83298 9.19495 6.9304C9.29237 7.02781 9.34717 7.15989 9.34735 7.29766C9.34722 7.43546 9.29243 7.56758 9.19501 7.66503C9.09759 7.76249 8.96548 7.81732 8.82768 7.81749ZM5.17169 6.11133C4.51752 6.11133 3.98535 6.64349 3.98535 7.29766C3.98535 7.95199 4.51752 8.48416 5.17169 8.48416C5.82585 8.48416 6.35802 7.95183 6.35802 7.29766C6.35802 6.64349 5.82585 6.11133 5.17169 6.11133ZM5.17169 7.81749C5.03389 7.81732 4.90178 7.76249 4.80436 7.66503C4.70694 7.56758 4.65215 7.43546 4.65202 7.29766C4.65219 7.15989 4.707 7.02781 4.80442 6.9304C4.90184 6.83298 5.03392 6.77817 5.17169 6.77799C5.30946 6.77817 5.44153 6.83298 5.53895 6.9304C5.63637 7.02781 5.69118 7.15989 5.69135 7.29766C5.69122 7.43546 5.63643 7.56758 5.53901 7.66503C5.44159 7.76249 5.30948 7.81732 5.17169 7.81749Z" fill="var(--fill-0, #868686)"/>
<path d="M6.35802 7.29766C6.35802 6.68442 5.89039 6.17811 5.29297 6.11719L5.17169 6.11133C4.51752 6.11133 3.98535 6.64349 3.98535 7.29766L3.99121 7.41895C4.04806 7.97673 4.49308 8.42081 5.05078 8.47754L5.17169 8.48416C5.78482 8.48406 6.29062 8.0163 6.35156 7.41895L6.35802 7.29766ZM10.014 7.29766C10.014 6.68451 9.54652 6.17822 8.94922 6.11719L8.82768 6.11133C8.17352 6.11133 7.64135 6.64349 7.64135 7.29766L7.64746 7.41895C7.70433 7.97681 8.14923 8.42092 8.70703 8.47754L8.82768 8.48416C9.44071 8.48394 9.94689 8.01623 10.0078 7.41895L10.014 7.29766ZM5.5918 7.29785C5.59165 7.18656 5.54647 7.07967 5.46777 7.00098C5.4088 6.94212 5.33441 6.90192 5.25391 6.88574L5.17188 6.87793C5.06058 6.87807 4.9537 6.92228 4.875 7.00098C4.81589 7.06008 4.77592 7.13504 4.75977 7.21582L4.75195 7.29785C4.75214 7.40906 4.79637 7.51607 4.875 7.59473C4.95368 7.67336 5.06063 7.71763 5.17188 7.71777L5.17169 7.81749L5.07031 7.80762C5.00356 7.79427 4.9404 7.76728 4.88379 7.72949L4.80436 7.66503C4.73127 7.59192 4.68213 7.49931 4.66211 7.39941L4.65202 7.29766C4.65215 7.19446 4.68287 7.0944 4.73926 7.00977L4.80442 6.9304C4.90184 6.83298 5.03392 6.77817 5.17169 6.77799L5.27344 6.78809C5.3733 6.80813 5.46587 6.85732 5.53895 6.9304C5.63637 7.02781 5.69118 7.15989 5.69135 7.29766L5.68164 7.39941C5.66163 7.49933 5.6121 7.59191 5.53901 7.66503L5.45996 7.72949C5.37525 7.78611 5.27507 7.81732 5.17169 7.81749L5.17188 7.71777C5.28308 7.71755 5.39012 7.67338 5.46875 7.59473C5.52774 7.53571 5.56682 7.4605 5.58301 7.37988L5.5918 7.29785ZM9.23926 7.21582C9.22309 7.13506 9.18312 7.06007 9.12402 7.00098C9.04534 6.92239 8.93836 6.87807 8.82715 6.87793C8.71615 6.87825 8.60978 6.92251 8.53125 7.00098C8.47215 7.06007 8.43218 7.13506 8.41602 7.21582L8.4082 7.29785C8.40839 7.40906 8.45262 7.51607 8.53125 7.59473C8.60977 7.67312 8.7162 7.71648 8.82715 7.7168C8.93831 7.71665 9.04536 7.67325 9.12402 7.59473C9.20266 7.51607 9.24689 7.40906 9.24707 7.29785L9.23926 7.21582ZM6.45801 7.29785C6.4579 8.00708 5.88114 8.58388 5.17188 8.58398C4.46253 8.58398 3.88585 8.00732 3.88574 7.29785C3.88574 6.58846 4.46248 6.01172 5.17188 6.01172C5.88118 6.01182 6.45801 6.58852 6.45801 7.29785ZM9.33691 7.39941C9.3169 7.49922 9.268 7.59196 9.19501 7.66503L9.11621 7.72949C9.03153 7.78614 8.93105 7.81728 8.82768 7.81749L8.72559 7.80762C8.65889 7.79419 8.59561 7.76733 8.53906 7.72949L8.46036 7.66503C8.38739 7.59196 8.33837 7.4992 8.31836 7.39941L8.30802 7.29766C8.30815 7.19441 8.33907 7.09443 8.39551 7.00977L8.46042 6.9304C8.55784 6.83298 8.68991 6.77817 8.82768 6.77799C8.96545 6.77817 9.09753 6.83298 9.19495 6.9304C9.29237 7.02781 9.34717 7.15989 9.34735 7.29766L9.33691 7.39941ZM10.1143 7.29785C10.1142 8.00699 9.53727 8.58375 8.82812 8.58398C8.11878 8.58398 7.54112 8.00732 7.54102 7.29785C7.54102 6.58846 8.11873 6.01172 8.82812 6.01172C9.53732 6.01196 10.1143 6.5886 10.1143 7.29785Z" fill="var(--fill-0, #868686)"/>
</g>
<path id="Vector_2" d="M12.375 6.04898H12.0994V4.91481C12.0994 4.15615 11.4822 3.53881 10.7234 3.53881H7.33303V2.77048C7.84803 2.62465 8.2267 2.15148 8.2267 1.59048C8.2267 0.913981 7.67636 0.363647 6.99969 0.363647C6.32303 0.363647 5.7727 0.913981 5.7727 1.59048C5.7727 2.15148 6.15136 2.62465 6.66636 2.77048V3.53881H3.27603C2.5172 3.53881 1.90003 4.15615 1.90003 4.91481V6.04898H1.62436C0.885362 6.04898 0.284195 6.65015 0.284195 7.38898V8.91315C0.284195 9.65198 0.885362 10.2531 1.62436 10.2531H1.90003V11.3873C1.90003 12.146 2.5172 12.7633 3.27603 12.7633H10.7234C11.482 12.7633 12.0994 12.146 12.0994 11.3873V10.2531H12.375C13.114 10.2531 13.7152 9.65198 13.7152 8.91315V7.38898C13.7152 6.65015 13.1139 6.04898 12.375 6.04898ZM6.43936 1.59065C6.43936 1.28165 6.69069 1.03031 6.99969 1.03031C7.30869 1.03031 7.56003 1.28165 7.56003 1.59048C7.56003 1.89948 7.30853 2.15098 6.99969 2.15098C6.69086 2.15098 6.43936 1.89965 6.43936 1.59065ZM1.62436 9.58648C1.44582 9.5863 1.27464 9.51531 1.14838 9.38908C1.02212 9.26285 0.951082 9.09169 0.950862 8.91315V7.38915C0.951082 7.21061 1.02212 7.03945 1.14838 6.91321C1.27464 6.78698 1.44582 6.71599 1.62436 6.71581H1.90003V9.58648H1.62436ZM11.4327 11.3873C11.4325 11.5754 11.3577 11.7557 11.2247 11.8887C11.0918 12.0217 10.9114 12.0965 10.7234 12.0966H3.27603C3.08796 12.0965 2.90764 12.0217 2.77465 11.8887C2.64166 11.7557 2.56687 11.5754 2.5667 11.3873V4.91481C2.56687 4.72674 2.64166 4.54642 2.77465 4.41343C2.90764 4.28045 3.08796 4.20566 3.27603 4.20548H10.7234C10.9114 4.20566 11.0918 4.28045 11.2247 4.41343C11.3577 4.54642 11.4325 4.72674 11.4327 4.91481V11.3873ZM13.0485 8.91315C13.0483 9.09169 12.9773 9.26285 12.851 9.38908C12.7247 9.51531 12.5536 9.5863 12.375 9.58648H12.0994V6.71565H12.375C12.5536 6.71582 12.7247 6.78682 12.851 6.91305C12.9773 7.03928 13.0483 7.21044 13.0485 7.38898V8.91315Z" fill="var(--fill-0, #868686)"/>
<path id="Vector (Stroke)" d="M7.94238 1.47656C7.94224 0.938386 7.5042 0.500174 6.96582 0.5C6.42729 0.5 5.98843 0.93828 5.98828 1.47656C5.98828 1.92213 6.28943 2.29963 6.7002 2.41602C6.8078 2.44649 6.88184 2.54539 6.88184 2.65723V3.4248C6.88184 3.56288 6.76991 3.6748 6.63184 3.6748H3.24219C2.62157 3.6748 2.11642 4.18034 2.11621 4.80078V5.93555C2.1161 6.07339 2.00404 6.18534 1.86621 6.18555H1.58984C0.989042 6.18572 0.5 6.67476 0.5 7.27539V8.7998L0.505859 8.91113C0.561986 9.45958 1.02674 9.88948 1.58984 9.88965H1.86621C2.00411 9.88985 2.11621 10.0017 2.11621 10.1396V11.2734C2.11621 11.8941 2.62145 12.3994 3.24219 12.3994H10.6895C11.3099 12.3993 11.8154 11.8939 11.8154 11.2734V10.1396C11.8154 10.0016 11.9274 9.88965 12.0654 9.88965H12.3408C12.9417 9.88965 13.4305 9.40041 13.4307 8.7998V7.27539C13.4307 6.67467 12.9416 6.18555 12.3408 6.18555H12.0654C11.9274 6.18555 11.8155 6.07352 11.8154 5.93555V4.80078C11.8152 4.18044 11.3099 3.67496 10.6895 3.6748H7.29883C7.16076 3.6748 7.04883 3.56287 7.04883 3.4248V2.65723C7.04883 2.54544 7.12295 2.44654 7.23047 2.41602C7.64131 2.29968 7.94238 1.92218 7.94238 1.47656ZM11.1484 4.80176L11.1396 4.71094C11.1219 4.62278 11.0782 4.54109 11.0137 4.47656C10.9491 4.41203 10.8675 4.36833 10.7793 4.35059L10.6885 4.3418H3.24219C3.12034 4.34191 3.00315 4.3904 2.91699 4.47656C2.83091 4.56271 2.78234 4.67996 2.78223 4.80176V11.2734L2.79102 11.3633C2.8087 11.4517 2.8523 11.5339 2.91699 11.5986C3.00315 11.6848 3.12037 11.7333 3.24219 11.7334H10.6885C10.8102 11.7333 10.9275 11.6847 11.0137 11.5986C11.0998 11.5125 11.1483 11.3953 11.1484 11.2734V4.80176ZM1.86621 6.35254C2.00411 6.35274 2.11621 6.46459 2.11621 6.60254V9.47266C2.11621 9.6106 2.00411 9.72245 1.86621 9.72266H1.58984C1.34512 9.72239 1.11057 9.62517 0.9375 9.45215C0.76442 9.27911 0.667295 9.04455 0.666992 8.7998V7.27539C0.667295 7.03069 0.764481 6.79608 0.9375 6.62305C1.11057 6.45002 1.34512 6.3528 1.58984 6.35254H1.86621ZM12.7559 7.19238C12.7395 7.11109 12.6992 7.03606 12.6396 6.97656C12.5801 6.91707 12.5051 6.87671 12.4238 6.86035L12.3408 6.85156H12.3154V9.22266H12.3408L12.4238 9.21484C12.5051 9.19851 12.5801 9.15805 12.6396 9.09863C12.7189 9.01936 12.7643 8.91192 12.7646 8.7998V7.27539L12.7559 7.19238ZM7.27539 1.47656C7.27524 1.30608 7.13656 1.16717 6.96582 1.16699C6.79504 1.16699 6.65551 1.30583 6.65527 1.47656C6.65527 1.64744 6.79501 1.78711 6.96582 1.78711C7.13639 1.78693 7.27539 1.64743 7.27539 1.47656ZM11.6436 11.3691C11.6215 11.5884 11.5244 11.7949 11.3672 11.9521C11.2099 12.1094 11.0036 12.2066 10.7842 12.2285L10.6895 12.2334H3.24121C2.98708 12.2331 2.74319 12.1318 2.56348 11.9521C2.40625 11.7949 2.30917 11.5885 2.28711 11.3691L2.28223 11.2734V4.80078L2.28711 4.70605C2.3091 4.48666 2.40623 4.28035 2.56348 4.12305C2.7432 3.94332 2.98706 3.84214 3.24121 3.8418H10.6895L10.7842 3.84668C11.0036 3.86866 11.2099 3.96574 11.3672 4.12305C11.547 4.30283 11.6482 4.54654 11.6484 4.80078V11.2734L11.6436 11.3691ZM1.16699 8.79883L1.1748 8.88184C1.19111 8.96338 1.23134 9.03897 1.29102 9.09863C1.37045 9.17803 1.4785 9.22255 1.59082 9.22266H1.61621V6.85254H1.59082L1.50781 6.86035C1.42625 6.87663 1.3507 6.9169 1.29102 6.97656C1.21171 7.05588 1.16724 7.16324 1.16699 7.27539V8.79883ZM13.2646 8.7998L13.2598 8.89062C13.2386 9.10201 13.1447 9.30064 12.9932 9.45215C12.8418 9.60338 12.6436 9.69655 12.4326 9.71777L12.3408 9.72266H12.0654C11.9274 9.72266 11.8154 9.61073 11.8154 9.47266V6.60156C11.8157 6.46369 11.9275 6.35156 12.0654 6.35156H12.3408L12.4326 6.35645C12.6437 6.37766 12.8418 6.47171 12.9932 6.62305C13.1662 6.79609 13.2643 7.03065 13.2646 7.27539V8.7998ZM7.77539 1.47656C7.77539 1.92348 7.41263 2.28694 6.96582 2.28711C6.51896 2.28711 6.15527 1.92368 6.15527 1.47656C6.15551 1.02969 6.51889 0.666992 6.96582 0.666992C7.41261 0.667166 7.77524 1.02984 7.77539 1.47656ZM8.44238 1.47656C8.44238 2.08457 8.07312 2.60456 7.54883 2.83105V3.1748H10.6895C11.5861 3.17496 12.3152 3.90433 12.3154 4.80078V5.68555H12.3408C13.2177 5.68555 13.9307 6.39845 13.9307 7.27539V8.7998C13.9305 9.67659 13.2178 10.3896 12.3408 10.3896H12.3154V11.2734C12.3154 12.1701 11.5861 12.8993 10.6895 12.8994H3.24219C2.34526 12.8994 1.61621 12.1702 1.61621 11.2734V10.3896H1.58984C0.767755 10.3895 0.0893601 9.76271 0.0078125 8.96191L0 8.7998V7.27539C0 6.39857 0.712941 5.68572 1.58984 5.68555H1.61621V4.80078C1.61642 3.90424 2.34539 3.1748 3.24219 3.1748H6.38184V2.83105C5.85769 2.6045 5.48828 2.08446 5.48828 1.47656C5.48843 0.662093 6.15119 0 6.96582 0C7.7803 0.000173597 8.44224 0.6622 8.44238 1.47656Z" fill="var(--fill-0, #868686)"/>
</g>
</svg>
