<svg preserveAspectRatio="none" width="100%" height="100%" overflow="visible" style="display: block;" viewBox="0 0 14 15" fill="none" xmlns="http://www.w3.org/2000/svg">
<path id="Icon" d="M5.5 13.404L6.48198 13.9496C6.67105 14.0546 6.76559 14.1071 6.8657 14.1277C6.95431 14.1459 7.0457 14.1459 7.1343 14.1277C7.23442 14.1071 7.32895 14.0546 7.51802 13.9496L8.5 13.404M2.5 11.7374L1.54865 11.2088C1.34897 11.0979 1.24912 11.0424 1.17642 10.9635C1.11211 10.8937 1.06343 10.811 1.03366 10.7209C1 10.619 1 10.5048 1 10.2764V9.23736M1 5.90403V4.86499C1 4.63656 1 4.52235 1.03366 4.42048C1.06343 4.33037 1.11211 4.24764 1.17642 4.17785C1.24912 4.09896 1.34897 4.04349 1.54865 3.93256L2.5 3.40403M5.5 1.73736L6.48198 1.19182C6.67105 1.08678 6.76559 1.03426 6.8657 1.01367C6.95431 0.995444 7.0457 0.995444 7.1343 1.01367C7.23442 1.03426 7.32895 1.08678 7.51802 1.19182L8.5 1.73736M11.5 3.40403L12.4514 3.93256C12.651 4.04349 12.7509 4.09896 12.8236 4.17785C12.8879 4.24764 12.9366 4.33036 12.9663 4.42048C13 4.52235 13 4.63656 13 4.86499V5.90403M13 9.23736V10.2764C13 10.5048 13 10.619 12.9663 10.7209C12.9366 10.811 12.8879 10.8937 12.8236 10.9635C12.7509 11.0424 12.651 11.0979 12.4514 11.2088L11.5 11.7374M5.5 6.73736L7 7.57069M7 7.57069L8.5 6.73736M7 7.57069V9.23736M1 4.23736L2.5 5.07069M11.5 5.07069L13 4.23736M7 12.5707V14.2374" stroke="var(--stroke-0, #535353)" stroke-linecap="round" stroke-linejoin="round"/>
</svg>
