<svg preserveAspectRatio="none" width="100%" height="100%" overflow="visible" style="display: block;" viewBox="0 0 13 15" fill="none" xmlns="http://www.w3.org/2000/svg">
<path id="Icon" d="M7.66667 1.17969V3.93338C7.66667 4.30675 7.66667 4.49343 7.73933 4.63604C7.80324 4.76148 7.90523 4.86347 8.03067 4.92739C8.17328 5.00005 8.35997 5.00005 8.73333 5.00005H11.487M7.66667 11H3.66667M9 8.33333H3.66667M11.6667 6.32548V11.1333C11.6667 12.2534 11.6667 12.8135 11.4487 13.2413C11.2569 13.6176 10.951 13.9236 10.5746 14.1153C10.1468 14.3333 9.58677 14.3333 8.46667 14.3333H4.2C3.0799 14.3333 2.51984 14.3333 2.09202 14.1153C1.71569 13.9236 1.40973 13.6176 1.21799 13.2413C1 12.8135 1 12.2534 1 11.1333V4.2C1 3.0799 1 2.51984 1.21799 2.09202C1.40973 1.71569 1.71569 1.40973 2.09202 1.21799C2.51984 1 3.0799 1 4.2 1H6.34118C6.83036 1 7.07496 1 7.30513 1.05526C7.5092 1.10425 7.70429 1.18506 7.88324 1.29472C8.08507 1.4184 8.25802 1.59135 8.60393 1.93726L10.7294 4.06274C11.0753 4.40865 11.2483 4.5816 11.3719 4.78343C11.4816 4.96237 11.5624 5.15746 11.6114 5.36154C11.6667 5.59171 11.6667 5.8363 11.6667 6.32548Z" stroke="var(--stroke-0, #868686)" stroke-width="1.33333" stroke-linecap="round" stroke-linejoin="round"/>
</svg>
