<svg preserveAspectRatio="none" width="100%" height="100%" overflow="visible" style="display: block;" viewBox="0 0 14 14" fill="none" xmlns="http://www.w3.org/2000/svg">
<path id="Icon" d="M5 13.4888V8.55543C5 8.18206 5 7.99537 5.07266 7.85276C5.13658 7.72732 5.23857 7.62534 5.36401 7.56142C5.50661 7.48876 5.6933 7.48876 6.06667 7.48876H7.93333C8.3067 7.48876 8.49339 7.48876 8.63599 7.56142C8.76144 7.62534 8.86342 7.72732 8.92734 7.85276C9 7.99537 9 8.18206 9 8.55543V13.4888M6.34513 1.33144L1.82359 4.84819C1.52135 5.08327 1.37022 5.20081 1.26135 5.34801C1.16491 5.4784 1.09307 5.62529 1.04935 5.78147C1 5.95778 1 6.14923 1 6.53214V11.3554C1 12.1022 1 12.4755 1.14532 12.7607C1.27316 13.0116 1.47713 13.2156 1.72801 13.3434C2.01323 13.4888 2.3866 13.4888 3.13333 13.4888H10.8667C11.6134 13.4888 11.9868 13.4888 12.272 13.3434C12.5229 13.2156 12.7268 13.0116 12.8547 12.7607C13 12.4755 13 12.1022 13 11.3554V6.53214C13 6.14923 13 5.95778 12.9506 5.78147C12.9069 5.62529 12.8351 5.4784 12.7386 5.34801C12.6298 5.20081 12.4787 5.08327 12.1764 4.84819L7.65487 1.33144C7.42065 1.14927 7.30354 1.05818 7.17423 1.02317C7.06013 0.992277 6.93987 0.992277 6.82577 1.02317C6.69646 1.05818 6.57935 1.14927 6.34513 1.33144Z" stroke="var(--stroke-0, #535353)" stroke-linecap="round" stroke-linejoin="round"/>
</svg>
