<svg preserveAspectRatio="none" width="100%" height="100%" overflow="visible" style="display: block;" viewBox="0 0 27 27" fill="none" xmlns="http://www.w3.org/2000/svg">
<g id="Arbitrum">
<path id="Coin" d="M26.1557 16.4791C24.3843 23.5864 17.1857 27.9264 10.0653 26.154C2.95796 24.3771 -1.37506 17.1785 0.396357 10.0712C2.16777 2.96385 9.36197 -1.37615 16.465 0.396344C23.5897 2.14711 27.9228 9.36741 26.1557 16.4791Z" fill="var(--fill-0, #213147)"/>
<g id="Arbitrum_2">
<path d="M5.14041 9.3708V17.1758C5.14041 17.6542 5.41871 18.1327 5.81897 18.3703L12.5889 22.2728C13.0267 22.5105 13.5458 22.5105 13.9836 22.2728L20.7535 18.3703C21.1913 18.1327 21.4321 17.6542 21.4321 17.1758V9.3708C21.4321 8.89237 21.1538 8.41394 20.7535 8.17629L13.9804 4.2738C13.5427 4.03615 13.0236 4.03615 12.5858 4.2738L5.81584 8.17629C5.37806 8.41394 5.14041 8.89237 5.14041 9.3708Z" fill="#213147"/>
<path d="M16.3694 10.3277C16.4508 10.1682 16.6478 10.1682 16.6884 10.3277L20.0312 19.5273L18.1206 20.6436L15.4126 13.1951C15.372 13.1169 15.372 13.0356 15.4126 12.9575L16.3694 10.3277Z" fill="#12AAFF"/>
<path d="M13.8209 17.4166L14.7778 14.7868C14.856 14.6273 15.0561 14.6273 15.0937 14.7868L17.4045 21.0783L15.4939 22.1946L13.8209 17.6542C13.7803 17.576 13.7803 17.4947 13.8209 17.4166Z" fill="#12AAFF"/>
<path d="M13.2643 4.5521C13.305 4.5521 13.3425 4.5521 13.3832 4.59275L20.7097 8.8142C20.7879 8.85485 20.8286 8.93302 20.8286 9.05185V17.4947C20.8286 17.5729 20.7879 17.6949 20.7097 17.7324L13.3832 21.9538C13.3425 21.9945 13.305 21.9945 13.2643 21.9945C13.2237 21.9945 13.1862 21.9945 13.1455 21.9538L5.81896 17.7324C5.74078 17.6917 5.70013 17.6136 5.70013 17.4947V9.05185C5.70013 8.97368 5.74078 8.85172 5.81896 8.8142L13.1455 4.59275C13.183 4.5521 13.2237 4.5521 13.2643 4.5521ZM13.2643 3.31694C12.986 3.31694 12.7453 3.39511 12.5076 3.51706L5.18105 7.73851C4.70262 8.01681 4.42432 8.49524 4.42432 9.05185V17.4947C4.42432 18.0138 4.70262 18.5298 5.18105 18.8081L12.5076 23.0295C12.7453 23.1484 12.986 23.2297 13.2643 23.2297C13.5426 23.2297 13.7834 23.1515 14.0211 23.0295L21.3476 18.8081C21.8261 18.5298 22.1044 18.0514 22.1044 17.4947V9.05185C22.1044 8.53277 21.8261 8.01681 21.3476 7.73851L14.0586 3.51706C13.8209 3.39824 13.5802 3.31694 13.3019 3.31694H13.2643Z" fill="#9DCCED"/>
<path d="M8.44562 20.6405L9.12106 18.8081L10.475 19.9244L9.20236 21.1189L8.44562 20.6405Z" fill="#213147"/>
<path d="M14.018 8.45459H15.891L15.8504 8.41707C15.9692 8.41707 16.0505 8.53589 16.0098 8.65472L11.0723 22.1946L9.16172 21.0783L13.699 8.65472C13.7397 8.53277 13.8991 8.45459 14.018 8.45459Z" fill="var(--fill-0, white)"/>
<path d="M10.794 8.45459H12.6264C12.7452 8.45459 12.8265 8.57342 12.7859 8.69225L8.40495 20.6812L6.49437 19.5648L10.4751 8.65472C10.5157 8.53277 10.6751 8.45459 10.794 8.45459Z" fill="var(--fill-0, white)"/>
</g>
</g>
</svg>
