<svg preserveAspectRatio="none" width="100%" height="100%" overflow="visible" style="display: block;" viewBox="0 0 26 26" fill="none" xmlns="http://www.w3.org/2000/svg">
<g id="Polygon_Icon 1" clip-path="url(#clip0_259_336)">
<path id="Vector" d="M25.6018 12.801C25.6018 5.73123 19.8706 8.61344e-06 12.8008 8.61344e-06C5.73097 8.61344e-06 -0.00025265 5.73123 -0.00025265 12.801C-0.00025265 19.8709 5.73097 25.6021 12.8008 25.6021C19.8706 25.6021 25.6018 19.8709 25.6018 12.801Z" fill="var(--fill-0, #6C00F6)"/>
<path id="Vector_2" d="M15.5607 7.08392L11.9883 9.13564V15.5391L10.0173 16.6816L8.0341 15.5382V13.252L10.0173 12.1196L11.2924 12.859V11.0094L10.0061 10.2791L6.43464 12.354V16.4583L10.0182 18.5221L13.5896 16.4583V10.0558L15.5728 8.91227L17.5549 10.0558V12.3318L15.5728 13.4855L14.2865 12.7395V14.5799L15.5607 15.3148L19.1674 13.2631V9.13564L15.5607 7.08392Z" fill="var(--fill-0, white)"/>
</g>
<defs>
<clipPath id="clip0_259_336">
<rect width="25.6021" height="25.6021" fill="white"/>
</clipPath>
</defs>
</svg>
