<svg preserveAspectRatio="none" width="100%" height="100%" overflow="visible" style="display: block;" viewBox="0 0 35 35" fill="none" xmlns="http://www.w3.org/2000/svg">
<g id="Ethereum Coin">
<path id="Coin" d="M33.6287 21.1874C31.3512 30.3254 22.0959 35.9054 12.9411 33.6265C3.80309 31.342 -1.76793 22.0867 0.509601 12.9487C2.78714 3.81066 12.0368 -1.76933 21.1693 0.509586C30.3297 2.76058 35.9007 12.0438 33.6287 21.1874Z" fill="var(--fill-0, #ECEFF0)"/>
<g id="Ethereum">
<path d="M17.2674 21.2063C17.2011 21.2288 17.1633 21.1711 17.1182 21.1446C14.9078 19.84 12.6998 18.5346 10.4942 17.2282C10.4729 17.2174 10.4507 17.2083 10.4279 17.201V17.1718L10.4671 17.1493C10.5226 17.1347 10.5773 17.117 10.6308 17.0963L15.8397 14.7263C16.3039 14.5147 16.7681 14.3065 17.2322 14.0969H17.2654C17.2654 14.1633 17.2654 14.2223 17.2654 14.2853C17.2672 16.5925 17.2678 18.8995 17.2674 21.2063Z" fill="#343535"/>
<path d="M17.2707 14.0986H17.2375C17.2375 14.0322 17.2442 13.9659 17.2442 13.8963C17.2442 11.3048 17.2442 8.71312 17.2442 6.12119C17.2365 6.05462 17.241 5.98722 17.2574 5.92225H17.2713C17.5439 6.32477 17.7813 6.74917 18.0319 7.16494C20.0178 10.4589 22.0025 13.7524 23.9861 17.0455C24.0054 17.078 24.0206 17.1118 24.0378 17.1476C23.9817 17.1356 23.9265 17.1194 23.8727 17.0992C23.5087 16.9347 23.1433 16.7676 22.7826 16.5999C22.2176 16.3412 21.6524 16.0831 21.0869 15.8253L18.3628 14.5913C18.0001 14.4242 17.6354 14.2617 17.2707 14.0986Z" fill="#2F3030"/>
<path d="M17.2596 5.91883C17.2432 5.98379 17.2387 6.05119 17.2463 6.11776C17.2463 8.70925 17.2463 11.3009 17.2463 13.8929C17.2463 13.9592 17.2424 14.0255 17.2397 14.0951C16.7755 14.3047 16.3113 14.5129 15.8471 14.7244L10.6383 17.0944C10.5848 17.1152 10.5301 17.1329 10.4745 17.1475C10.625 16.8345 10.8207 16.5507 10.9991 16.2509C13.0658 12.8155 15.1341 9.38077 17.2039 5.94668C17.2176 5.92765 17.2324 5.90949 17.2483 5.8923L17.2596 5.91883Z" fill="#828384"/>
<path d="M17.2707 14.0986C17.6354 14.2617 18.0002 14.4242 18.3643 14.5887L21.0884 15.8227C21.6543 16.08 22.2195 16.3382 22.784 16.5973C23.1474 16.7637 23.5134 16.9321 23.8742 17.0966C23.9279 17.1168 23.9831 17.133 24.0393 17.145C24.1056 17.2279 24.0075 17.2312 23.9776 17.2491C23.412 17.5873 22.8437 17.9209 22.2767 18.2564C20.6494 19.2192 19.0225 20.1819 17.3961 21.1443C17.355 21.1682 17.3105 21.1857 17.2674 21.2063C17.2674 18.8999 17.2675 16.5937 17.2675 14.2869C17.2681 14.2239 17.27 14.1616 17.2707 14.0986Z" fill="#131313"/>
<path d="M17.2441 22.5164L21.5047 20.0052C22.3181 19.5251 23.1311 19.0445 23.9436 18.5635L24.0172 18.5231C24.0245 18.5894 23.9788 18.6245 23.9509 18.663C22.0942 21.2806 20.2374 23.8972 18.3807 26.513C18.0292 27.0091 17.6784 27.5077 17.3237 27.9998C17.3051 28.0256 17.2766 28.147 17.2195 28.0183C17.2646 27.9799 17.2447 27.9281 17.2447 27.8857C17.2452 26.0953 17.245 24.3055 17.2441 22.5164Z" fill="#2F3030"/>
<path d="M17.2437 22.5167C17.2437 24.3058 17.2437 26.0945 17.2437 27.8827C17.2437 27.9285 17.2636 27.9802 17.2185 28.0153C17.1237 27.9583 17.0826 27.8562 17.0196 27.772C14.8666 24.7393 12.7148 21.7062 10.5641 18.6726C10.5369 18.6342 10.5117 18.593 10.4838 18.5506C10.5395 18.5181 10.5694 18.5625 10.6019 18.5818C12.7791 19.8673 14.9559 21.154 17.1323 22.4418C17.1728 22.467 17.2072 22.4929 17.2437 22.5167Z" fill="#828384"/>
<path d="M17.2601 5.91879L17.2442 5.89425C17.2734 5.87569 17.2694 5.90288 17.274 5.9168L17.2601 5.91879Z" fill="var(--fill-0, #393939)"/>
</g>
</g>
</svg>
