<svg preserveAspectRatio="none" width="100%" height="100%" overflow="visible" style="display: block;" viewBox="0 0 27 27" fill="none" xmlns="http://www.w3.org/2000/svg">
<g id="BNB Chain">
<path id="Coin" d="M26.1557 16.4791C24.3843 23.5864 17.1857 27.9264 10.0653 26.154C2.95796 24.3771 -1.37506 17.1785 0.396357 10.0712C2.16777 2.96385 9.36197 -1.37615 16.465 0.396344C23.5897 2.14711 27.9228 9.36741 26.1557 16.4791Z" fill="var(--fill-0, #F0B90B)"/>
<g id="BNB">
<path d="M18.353 12.6251L18.3427 10.4155H18.3507L16.4738 9.31062L13.2577 11.2069L10.061 9.31062L8.18529 10.4155V12.6251L11.4014 14.5123V18.2958L13.2691 19.3903L15.1368 18.2958V14.5123L18.353 12.6251Z" fill="var(--fill-0, white)"/>
<path d="M13.2588 3.6503L8.18414 6.64229L10.0518 7.74714L13.2588 5.85083L16.475 7.74714L18.3427 6.64229L13.2588 3.6503Z" fill="var(--fill-0, white)"/>
<path d="M6.84402 17.1817L6.83372 13.4074L4.96717 12.3037V18.2969L10.051 21.2786V19.0689L6.84402 17.1817Z" fill="var(--fill-0, white)"/>
<path d="M6.83372 11.8325V9.63312L8.71057 8.52828L6.83372 7.42344L4.96603 8.52828V10.7277L6.83372 11.8325Z" fill="var(--fill-0, white)"/>
<path d="M13.258 7.42344L11.3903 8.52828L13.258 9.63312L15.1349 8.52828L13.258 7.42344Z" fill="var(--fill-0, white)"/>
<path d="M10.0518 15.2946L8.18414 14.1897V16.3994L10.0518 17.494V15.2946Z" fill="var(--fill-0, white)"/>
<path d="M13.2588 20.9652L11.3911 19.8604V22.0598L13.2588 23.1646L15.1357 22.0598V19.8604L13.2588 20.9652Z" fill="var(--fill-0, white)"/>
<path d="M19.682 7.42344L17.8143 8.52828L19.682 9.63312V11.8325L21.5588 10.7277V8.52828L19.682 7.42344Z" fill="var(--fill-0, white)"/>
<path d="M21.56 12.3026L19.6923 13.4074L19.682 17.1817L16.4761 19.0678V21.2774L21.56 18.2957V12.3026Z" fill="var(--fill-0, white)"/>
<path d="M18.3431 16.3994L16.4754 17.4939V15.2945L18.3431 14.1897V16.3994Z" fill="var(--fill-0, white)"/>
</g>
</g>
</svg>
