<svg preserveAspectRatio="none" width="100%" height="100%" overflow="visible" style="display: block;" viewBox="0 0 26 26" fill="none" xmlns="http://www.w3.org/2000/svg">
<g id="TRON Coin">
<path id="Coin" d="M25.2216 15.8906C23.5134 22.7441 16.572 26.9291 9.70586 25.2199C2.85232 23.5065 -1.32595 16.565 0.382201 9.71151C2.09035 2.858 9.02762 -1.327 15.877 0.382189C22.7473 2.07043 26.9255 9.03286 25.2216 15.8906Z" fill="var(--fill-0, #FF060A)"/>
<path id="TRON" d="M20.4306 11.0628C19.6805 10.3703 18.6429 9.31271 17.7979 8.56266L17.7479 8.52765C17.6647 8.46084 17.5709 8.40845 17.4704 8.37264C15.4327 7.99262 5.94962 6.22 5.76461 6.2425C5.71276 6.24976 5.66321 6.26856 5.6196 6.2975L5.57209 6.33501C5.5136 6.39441 5.46917 6.46618 5.44209 6.54502L5.42958 6.57752V6.75503V6.78254C6.49715 9.75524 10.7124 19.4934 11.5425 21.7786C11.5925 21.9336 11.6875 22.2286 11.865 22.2436H11.905C12 22.2436 12.405 21.7085 12.405 21.7085C12.405 21.7085 19.6455 12.928 20.3781 11.9929C20.4729 11.8777 20.5566 11.7538 20.6281 11.6229C20.6463 11.5204 20.6377 11.415 20.6031 11.3168C20.5685 11.2187 20.509 11.1312 20.4306 11.0628ZM14.2627 12.0854L17.3529 9.52272L19.1655 11.1928L14.2627 12.0854ZM13.0626 11.9179L7.74223 7.55759L16.3503 9.1452L13.0626 11.9179ZM13.5426 13.0605L18.988 12.1829L12.7626 19.6834L13.5426 13.0605ZM7.01969 7.99262L12.6175 12.7429L11.8075 19.6884L7.01969 7.99262Z" fill="var(--fill-0, white)"/>
</g>
</svg>
