<svg preserveAspectRatio="none" width="100%" height="100%" overflow="visible" style="display: block;" viewBox="0 0 26 26" fill="none" xmlns="http://www.w3.org/2000/svg">
<g id="optimism-ethereum-op-logo 1" clip-path="url(#clip0_259_304)">
<path id="Vector" d="M12.8014 25.6021C19.8712 25.6021 25.6024 19.8709 25.6024 12.801C25.6024 5.73123 19.8712 8.61344e-06 12.8014 8.61344e-06C5.73156 8.61344e-06 0.000340106 5.73123 0.000340106 12.801C0.000340106 19.8709 5.73156 25.6021 12.8014 25.6021Z" fill="var(--fill-0, #FF0420)"/>
<path id="Vector_2" d="M9.06879 16.2018C8.30585 16.2018 7.68116 16.0226 7.19472 15.6641C6.7134 15.3006 6.47274 14.7783 6.47274 14.1075C6.47274 13.9642 6.4881 13.7952 6.51882 13.5904C6.60075 13.1295 6.71852 12.5765 6.87213 11.9262C7.30737 10.1648 8.43386 9.28409 10.2465 9.28409C10.738 9.28409 11.1835 9.36602 11.5727 9.53499C11.9618 9.69373 12.269 9.93951 12.4943 10.2672C12.7196 10.5898 12.8323 10.9738 12.8323 11.4193C12.8323 11.5524 12.8169 11.7214 12.7862 11.9262C12.6889 12.4946 12.5763 13.0527 12.438 13.5904C12.2127 14.466 11.8287 15.1265 11.2757 15.5617C10.7278 15.9918 9.99046 16.2018 9.06879 16.2018ZM9.20704 14.8193C9.56547 14.8193 9.86757 14.7117 10.1185 14.5018C10.3745 14.2919 10.5588 13.9693 10.6664 13.5289C10.8149 12.9247 10.9275 12.4024 11.0043 11.9518C11.0299 11.8187 11.0453 11.6804 11.0453 11.5371C11.0453 10.9533 10.7432 10.6615 10.1338 10.6615C9.77541 10.6615 9.46818 10.769 9.21216 10.979C8.96126 11.1889 8.78205 11.5115 8.67452 11.9518C8.55675 12.3819 8.4441 12.9042 8.32633 13.5289C8.30073 13.6569 8.28537 13.7901 8.28537 13.9334C8.28025 14.5274 8.59259 14.8193 9.20704 14.8193Z" fill="var(--fill-0, white)"/>
<path id="Vector_3" d="M13.2779 16.1082C13.2063 16.1082 13.1551 16.0877 13.1141 16.0416C13.0834 15.9904 13.0731 15.9341 13.0834 15.8675L14.4096 9.62059C14.4198 9.54891 14.4556 9.49258 14.5171 9.4465C14.5734 9.40042 14.6349 9.37994 14.7014 9.37994H17.2565C17.9682 9.37994 18.5366 9.52843 18.9667 9.82029C19.402 10.1173 19.6221 10.5423 19.6221 11.1004C19.6221 11.2591 19.6017 11.4281 19.5658 11.6022C19.4071 12.3395 19.0845 12.8823 18.5929 13.2356C18.1116 13.5889 17.4511 13.763 16.6113 13.763H15.3159L14.8755 15.8675C14.8601 15.9392 14.8294 15.9955 14.768 16.0416C14.7117 16.0877 14.6502 16.1082 14.5836 16.1082H13.2779ZM16.6779 12.4368C16.9493 12.4368 17.1797 12.3651 17.3794 12.2166C17.5842 12.0682 17.7173 11.8582 17.7839 11.5817C17.8044 11.4742 17.8146 11.3769 17.8146 11.295C17.8146 11.1106 17.7583 10.9673 17.6508 10.87C17.5432 10.7676 17.3538 10.7164 17.0926 10.7164H15.9406L15.577 12.4368H16.6779Z" fill="var(--fill-0, white)"/>
</g>
<defs>
<clipPath id="clip0_259_304">
<rect width="25.6021" height="25.6021" fill="white"/>
</clipPath>
</defs>
</svg>
