<svg preserveAspectRatio="none" width="100%" height="100%" overflow="visible" style="display: block;" viewBox="0 0 41 41" fill="none" xmlns="http://www.w3.org/2000/svg">
<g id="Group">
<path id="Vector" d="M40.0507 18.1154C35.4518 -8.55346 0.628199 -3.38563 0.0118529 18.1154C2.02683 19.1584 3.28323 19.7866 3.28323 19.7866C3.28323 19.7866 2.21648 20.4267 0 21.849C4.0181 47.9963 38.2372 44.1916 40.0507 21.8134C37.8697 20.4741 36.6845 19.7748 36.6845 19.7748C36.6845 19.7748 37.7038 19.3006 40.0507 18.1154ZM22.9233 27.4317L19.652 21.8134L16.3332 27.4317L13.8204 27.2539L18.5497 19.2888L14.2945 12.4142L16.8666 12.189L19.9009 17.2857L22.9352 12.4142L25.3295 12.4734L21.3588 19.2295L25.7325 27.3606L22.9233 27.4317Z" fill="var(--fill-0, #B7B5B1)"/>
</g>
</svg>
