<svg preserveAspectRatio="none" width="100%" height="100%" overflow="visible" style="display: block;" viewBox="0 0 26 26" fill="none" xmlns="http://www.w3.org/2000/svg">
<g id="Filecoin">
<g clip-path="url(#clip0_259_299)">
<g id="Filecoin_2">
<path d="M12.8015 25.6017C19.8714 25.6017 25.6026 19.8705 25.6026 12.8007C25.6026 5.73085 19.8714 -0.000369202 12.8015 -0.000369202C5.73167 -0.000369202 0.000420419 5.73085 0.000420419 12.8007C0.000420419 19.8705 5.73167 25.6017 12.8015 25.6017Z" fill="#0090FF"/>
<path d="M12.7436 10.3137C13.0328 9.06061 13.3991 7.94244 13.7847 7.20985C13.9196 6.86284 14.498 6.01458 15.1149 5.45549C16.156 4.53012 17.3127 4.29877 18.5272 5.05064C19.1442 5.43622 19.3948 5.84107 19.2791 6.20736C19.202 6.49654 18.8935 6.70861 18.72 6.68933C18.4887 6.70861 18.2381 6.67005 18.0067 6.49654C17.8139 6.34231 17.6597 6.14953 17.5826 5.91818C17.4091 5.51333 17.197 5.37838 16.9078 5.41694C16.715 5.43622 16.4837 5.57117 16.4066 5.64828L16.2138 5.86035C16.0596 6.01458 15.9439 6.18808 15.8282 6.36159C15.4426 6.99779 15.0956 8.15451 14.6136 10.5643L17.8525 11.0463L17.679 12.338L14.4016 11.856L14.2666 12.7043L14.2281 12.9163C14.2088 13.032 14.1895 13.1477 14.1702 13.2826L17.4862 13.7646L17.2934 15.0563L13.9003 14.555C13.5148 16.213 12.9942 18.0059 12.6279 18.6999C12.493 19.047 11.9146 19.8952 11.2977 20.4543C10.2566 21.3797 9.09992 21.611 7.88535 20.8591C7.26843 20.4736 7.01781 20.0687 7.13348 19.7024C7.21059 19.4132 7.51906 19.2012 7.69256 19.2205C7.92391 19.2012 8.17453 19.2397 8.40588 19.4132C8.57939 19.5482 8.73362 19.741 8.83001 19.9916C9.00352 20.3965 9.21559 20.5314 9.50477 20.4929C9.69756 20.4736 9.9289 20.3386 10.006 20.2615C10.7386 19.4518 11.317 17.8902 12.0303 14.3044L8.79146 13.8224L8.96496 12.5308L12.2424 13.0127L12.3773 12.1645C12.4159 11.9717 12.4351 11.7789 12.4737 11.5861L9.17703 11.1041L9.36982 9.81247C9.36982 9.83175 12.7436 10.3137 12.7436 10.3137Z" fill="var(--fill-0, white)"/>
</g>
</g>
</g>
<defs>
<clipPath id="clip0_259_299">
<rect width="25.6021" height="25.6021" rx="12.801" fill="white"/>
</clipPath>
</defs>
</svg>
