<svg preserveAspectRatio="none" width="100%" height="100%" overflow="visible" style="display: block;" viewBox="0 0 88 71" fill="none" xmlns="http://www.w3.org/2000/svg">
<path id="Openwork Logomark" fill-rule="evenodd" clip-rule="evenodd" d="M43.9807 0C60.1422 0 73.7775 10.8157 78.0433 25.6039C83.544 25.74 87.9614 30.2418 87.9614 35.7753C87.9614 41.3748 83.4381 45.9179 77.846 45.9498C73.3699 60.3989 59.901 70.8942 43.9807 70.8942C28.0604 70.8942 14.5915 60.3989 10.1153 45.9498C4.52333 45.9179 0 41.3748 0 35.7753C0 30.2418 4.41735 25.74 9.91811 25.6039C14.1839 10.8157 27.8192 0 43.9807 0ZM12.5739 25.8852C16.6674 12.4225 29.18 2.62571 43.9807 2.62571C58.7814 2.62571 71.294 12.4225 75.3875 25.8852C70.926 26.9637 67.6121 30.9825 67.6121 35.7753C67.6121 40.4993 70.8315 44.4714 75.196 45.6172C70.915 58.7658 58.5576 68.2685 43.9807 68.2685C29.4038 68.2685 17.0463 58.7658 12.7654 45.6172C17.1299 44.4714 20.3493 40.4993 20.3493 35.7753C20.3493 30.9825 17.0354 26.9637 12.5739 25.8852Z" fill="var(--fill-0, white)"/>
</svg>
