<svg preserveAspectRatio="none" width="100%" height="100%" overflow="visible" style="display: block;" viewBox="0 0 374 371" fill="none" xmlns="http://www.w3.org/2000/svg">
<g id="Vector">
<path d="M59.2989 193.304L130.626 72.1095L188.491 193.656L188.207 193.671L59.2914 193.297L59.2989 193.304ZM130.597 72.9024L59.9713 192.893L187.916 193.312L130.597 72.9024Z" fill="#1246FF" fill-opacity="0.4"/>
<path d="M188.177 193.858L188.035 193.566L130.298 72.2815L254.402 86.1349L254.222 86.3892L188.177 193.858ZM130.925 72.7303L188.229 193.117L253.737 86.4416L130.925 72.7303Z" fill="#1246FF" fill-opacity="0.4"/>
<path d="M254.364 86.5089L254.051 86.4715L130.096 72.6331L130.514 72.3488L223.015 9.34281L223.105 9.55974L254.364 86.5089ZM131.134 72.3788L253.774 86.0676L222.836 9.91131L131.134 72.3788Z" fill="#1246FF" fill-opacity="0.4"/>
<path d="M130.544 72.7827L130.447 72.5882L103.655 18.1321L103.932 18.1096L223.613 9.39517L130.544 72.7827ZM104.231 18.4612L130.686 72.2291L222.246 9.86643L104.231 18.4612Z" fill="#1246FF" fill-opacity="0.4"/>
<path d="M103.954 18.4837L103.902 18.1096L185.293 2.55076H185.33L224.412 9.70934L103.969 18.4837H103.954ZM185.293 2.93225L107.137 17.8778L221.454 9.55226L185.293 2.93225Z" fill="#1246FF" fill-opacity="0.4"/>
<path d="M314.829 90.3912L253.916 86.4416L253.871 86.3294L222.462 8.97628L314.821 90.3912H314.829ZM254.178 86.0825L313.76 89.9498L223.389 10.2853L254.17 86.0825H254.178Z" fill="#1246FF" fill-opacity="0.4"/>
<path d="M314.717 90.9821L222.036 9.09597L283.823 32.4119L283.853 32.4717L314.717 90.9821ZM223.815 10.1656L313.432 89.3514L283.554 32.7111L223.807 10.1656H223.815Z" fill="#1246FF" fill-opacity="0.4"/>
<path d="M314.201 90.3986L282.942 31.5516L334.418 82.9184L314.201 90.3986ZM284.443 33.5713L314.388 89.9349L333.746 82.7688L284.443 33.5713Z" fill="#1246FF" fill-opacity="0.4"/>
<path d="M350.496 109.159L313.828 90.1368L334.157 82.6192L350.496 109.167V109.159ZM314.754 90.1967L349.473 108.209L334 83.0755L314.754 90.1967Z" fill="#1246FF" fill-opacity="0.4"/>
<path d="M323.495 195.436L323.129 195.414L187.863 193.648L188.05 193.379L254.073 85.9479L254.222 86.1873L323.488 195.436H323.495ZM188.543 193.327L322.793 195.017L254.066 86.6361L188.551 193.327H188.543Z" fill="#1246FF" fill-opacity="0.4"/>
<path d="M244.121 314.499L243.987 314.192L187.916 193.274L323.488 195.085L244.129 314.499H244.121ZM188.506 193.693L244.181 313.736L322.808 195.414L188.506 193.693Z" fill="#1246FF" fill-opacity="0.4"/>
<path d="M127.19 297.257L127.018 296.988L59.3064 192.923L59.6351 192.908L188.528 193.416L188.371 193.708L127.19 297.257ZM59.9713 193.267L127.152 296.524L187.886 193.828L59.9713 193.267Z" fill="#1246FF" fill-opacity="0.4"/>
<path d="M49.9674 301.401L49.9898 301.184L59.5006 192.541L59.7995 192.998L127.511 297.063L127.19 297.078L49.9748 301.394L49.9674 301.401ZM59.777 193.656L50.3783 301.005L126.838 296.726L59.777 193.656Z" fill="#1246FF" fill-opacity="0.4"/>
<path d="M155.08 364.961L49.5564 301.05L50.1616 301.012L127.294 296.696L127.347 296.816L155.08 364.953V364.961ZM50.7892 301.349L154.31 364.048L127.048 297.078L50.7817 301.341L50.7892 301.349Z" fill="#1246FF" fill-opacity="0.4"/>
<path d="M156.118 365.148L96.9238 346.552L48.8392 300.174L156.111 365.148H156.118ZM97.1554 346.253L153.279 363.861L51.5139 302.224L97.1554 346.253Z" fill="#1246FF" fill-opacity="0.4"/>
<path d="M50.9386 302.441L28.0543 274.121L1.38964 193.155L1.73332 193.02L50.9311 302.433L50.9386 302.441ZM28.3905 273.971L49.407 299.957L2.86147 196.438L28.3905 273.979V273.971Z" fill="#1246FF" fill-opacity="0.4"/>
<path d="M185.293 369H185.263L153.003 364.452L265.227 355.274L265.272 355.648L185.286 369H185.293ZM156.387 364.557L185.286 368.626L260.812 356.014L156.38 364.557H156.387Z" fill="#1246FF" fill-opacity="0.4"/>
<path d="M154.601 364.774L126.876 296.659L127.197 296.704L244.712 314.013L244.241 314.282L154.601 364.774ZM127.474 297.122L154.788 364.235L243.583 314.222L127.466 297.122H127.474Z" fill="#1246FF" fill-opacity="0.4"/>
<path d="M153.869 364.766L154.601 364.347L244.226 313.863L244.316 314.035L265.549 355.633L265.265 355.655L153.869 364.766ZM244.077 314.379L155.528 364.257L264.951 355.304L244.077 314.379Z" fill="#1246FF" fill-opacity="0.4"/>
<path d="M265.198 355.767L265.078 355.551L243.875 314.215L244.099 314.155L334.739 288.767L334.209 289.276L265.198 355.767ZM244.428 314.447L265.295 355.154L333.417 289.515L244.42 314.447H244.428Z" fill="#1246FF" fill-opacity="0.4"/>
<path d="M50.2961 301.932L1.27757 192.915H59.8443L59.8293 193.117L50.3036 301.932H50.2961ZM1.85286 193.289L50.0495 300.474L59.4334 193.289H1.85286Z" fill="#1246FF" fill-opacity="0.4"/>
<path d="M33.8595 99.5544L34.2629 99.0907L103.984 17.96L104.111 18.2144L130.88 72.6256L33.8595 99.5544ZM103.902 18.6333L34.9428 98.8663L130.342 72.3862L103.894 18.6333H103.902Z" fill="#1246FF" fill-opacity="0.4"/>
<path d="M59.8816 193.289H1.29999L1.38964 193.042L34.4273 98.582L59.8816 193.289ZM1.83044 192.915H59.396L34.3824 99.8462L1.83044 192.915Z" fill="#1246FF" fill-opacity="0.4"/>
<path d="M1.74079 193.162L1.38217 193.057L20.755 113.767L20.7849 113.729L34.8755 98.4175L1.74079 193.162ZM21.0987 113.946L2.65975 189.4L33.9267 100.003L21.0987 113.946Z" fill="#1246FF" fill-opacity="0.4"/>
<path d="M20.232 114.889L30.475 93.3459L103.812 18.1695L104.089 18.4238L34.5468 99.3375L20.232 114.896V114.889ZM30.7589 93.5852L21.6291 112.824L34.2704 99.0907L99.9422 22.6651L30.7589 93.5852Z" fill="#1246FF" fill-opacity="0.4"/>
<path d="M59.5753 193.581L59.4632 193.155L34.1807 99.0832L34.36 99.0308L131.015 72.2067L130.783 72.6032L59.5828 193.581H59.5753ZM34.629 99.345L59.7023 192.624L130.215 72.8126L34.629 99.345Z" fill="#1246FF" fill-opacity="0.4"/>
<path d="M244.465 314.357L244.121 314.304L126.883 297.04L127.01 296.808L188.252 193.207L188.409 193.551L244.465 314.357ZM127.459 296.748L243.837 313.886L188.222 194.052L127.459 296.748Z" fill="#1246FF" fill-opacity="0.4"/>
<path d="M243.71 314.432L243.994 314.013L323.271 195.167L323.331 195.661L334.284 289.276L334.127 289.321L243.71 314.432ZM323.017 196.199L244.592 313.803L333.88 289.006L323.025 196.199H323.017Z" fill="#1246FF" fill-opacity="0.4"/>
<path d="M333.985 289.882L322.935 195.04L371.617 196.356L371.677 196.61L333.985 289.882ZM323.353 195.414L334.179 288.4L371.229 196.73L323.353 195.414Z" fill="#1246FF" fill-opacity="0.4"/>
<path d="M323.391 196.438L322.987 195.78L253.722 86.0825L314.47 89.9947L314.485 90.1593L323.398 196.446L323.391 196.438ZM254.417 86.5014L322.89 194.927L314.112 90.3388L254.409 86.494L254.417 86.5014Z" fill="#1246FF" fill-opacity="0.4"/>
<path d="M371.528 196.73L322.972 195.414L314.037 89.2916L371.528 196.73ZM323.316 195.04L371.191 196.356L314.552 91.0419L323.316 195.04Z" fill="#1246FF" fill-opacity="0.4"/>
<path d="M371.677 196.61L371.341 196.625L313.843 89.7179L350.145 108.553L350.168 108.635L371.677 196.61ZM314.747 90.6081L370.975 195.159L349.824 108.807L314.747 90.6081Z" fill="#1246FF" fill-opacity="0.4"/>
<path d="M103.681 18.577L76.4674 122.287L76.8287 122.382L104.042 18.672L103.681 18.577Z" fill="#1246FF" fill-opacity="0.4"/>
<path d="M76.7217 122.466L76.4976 122.175L223.12 9.39517L223.344 9.6869L76.7217 122.466Z" fill="#1246FF" fill-opacity="0.4"/>
<path d="M76.7174 122.163L76.5057 122.472L134.105 162.136L134.317 161.828L76.7174 122.163Z" fill="#1246FF" fill-opacity="0.4"/>
<path d="M209.035 109.95L134.105 161.819L134.317 162.127L209.247 110.257L209.035 109.95Z" fill="#1246FF" fill-opacity="0.4"/>
<path d="M209.328 110.139L208.954 110.087L223.045 9.51486L223.419 9.56722L209.328 110.139Z" fill="#1246FF" fill-opacity="0.4"/>
<path d="M104.016 18.4891L103.771 18.7715L209.017 110.242L209.262 109.96L104.016 18.4891Z" fill="#1246FF" fill-opacity="0.4"/>
<path d="M209.311 110.028L208.964 110.165L248.402 210.254L248.75 210.116L209.311 110.028Z" fill="#1246FF" fill-opacity="0.4"/>
<path d="M134.27 161.806L134.125 162.15L248.493 210.355L248.638 210.01L134.27 161.806Z" fill="#1246FF" fill-opacity="0.4"/>
<path d="M134.013 161.956L123.012 239.541L123.381 239.593L134.382 162.008L134.013 161.956Z" fill="#1246FF" fill-opacity="0.4"/>
<path d="M248.536 209.942L123.183 239.425L123.268 239.79L248.622 210.306L248.536 209.942Z" fill="#1246FF" fill-opacity="0.4"/>
<path d="M1.7109 193.297L1.45688 193.027L76.4826 122.182L76.7367 122.459L1.7109 193.297Z" fill="#1246FF" fill-opacity="0.4"/>
<path d="M76.7834 122.251L76.4363 122.389L123.016 239.639L123.363 239.501L76.7834 122.251Z" fill="#1246FF" fill-opacity="0.4"/>
<path d="M299.304 129.61L209.104 110.296L209.179 109.93L299.378 129.243L299.304 129.61Z" fill="#1246FF" fill-opacity="0.4"/>
<path d="M299.12 129.299L248.497 210.16L248.813 210.358L299.437 129.497L299.12 129.299Z" fill="#1246FF" fill-opacity="0.4"/>
<path d="M223.398 9.44495L223.082 9.64557L299.192 129.535L299.507 129.335L223.398 9.44495Z" fill="#1246FF" fill-opacity="0.4"/>
<path d="M314.267 90.0608L299.164 129.35L299.513 129.485L314.616 90.1952L314.267 90.0608Z" fill="#1246FF" fill-opacity="0.4"/>
<path d="M371.266 196.85L299.214 129.565L299.468 129.288L371.528 196.581L371.266 196.85Z" fill="#1246FF" fill-opacity="0.4"/>
<path d="M248.597 210.382L248.552 210.008L371.378 196.528L371.416 196.902L248.597 210.382Z" fill="#1246FF" fill-opacity="0.4"/>
<path d="M251.921 272.782L248.387 210.21L248.761 210.187L252.295 272.759L251.921 272.782Z" fill="#1246FF" fill-opacity="0.4"/>
<path d="M252.153 272.605L252.082 272.972L334.266 288.966L334.337 288.599L252.153 272.605Z" fill="#1246FF" fill-opacity="0.4"/>
<path d="M252.205 272.931L252.003 272.617L371.296 196.558L371.498 196.872L252.205 272.931Z" fill="#1246FF" fill-opacity="0.4"/>
<path d="M265.093 355.304L251.921 272.804L252.287 272.744L265.459 355.244L265.093 355.304Z" fill="#1246FF" fill-opacity="0.4"/>
<path d="M251.957 272.578L154.519 364.638L154.775 364.911L252.213 272.85L251.957 272.578Z" fill="#1246FF" fill-opacity="0.4"/>
<path d="M123.25 239.409L123.157 239.771L252.065 272.981L252.158 272.619L123.25 239.409Z" fill="#1246FF" fill-opacity="0.4"/>
<path d="M122.981 239.525L106.949 313.825L107.315 313.904L123.346 239.604L122.981 239.525Z" fill="#1246FF" fill-opacity="0.4"/>
<path d="M154.467 364.893L106.965 313.99L107.242 313.736L154.743 364.639L154.467 364.893Z" fill="#1246FF" fill-opacity="0.4"/>
<path d="M97.1031 346.537L96.7445 346.425L106.928 313.803L107.286 313.916L97.1031 346.537Z" fill="#1246FF" fill-opacity="0.4"/>
<path d="M107.062 314.043L50.2737 301.177L50.3559 300.81L107.144 313.676L107.062 314.043Z" fill="#1246FF" fill-opacity="0.4"/>
<path d="M252.068 272.637L107.046 313.642L107.148 314.002L252.17 272.997L252.068 272.637Z" fill="#1246FF" fill-opacity="0.4"/>
<path d="M106.965 313.983L45.8806 242.584L46.1645 242.337L107.249 313.736L106.965 313.983Z" fill="#1246FF" fill-opacity="0.4"/>
<path d="M123.187 239.388L46.0101 242.262L46.024 242.636L123.2 239.762L123.187 239.388Z" fill="#1246FF" fill-opacity="0.4"/>
<path d="M76.3898 122.266L45.8864 242.43L46.2484 242.522L76.7518 122.358L76.3898 122.266Z" fill="#1246FF" fill-opacity="0.4"/>
<path d="M45.8806 242.584L1.44941 193.289L1.72585 193.035L46.1571 242.337L45.8806 242.584Z" fill="#1246FF" fill-opacity="0.4"/>
<path d="M28.3009 274.195L27.9722 274.023L45.8507 242.375L46.1869 242.547L28.3009 274.195Z" fill="#1246FF" fill-opacity="0.4"/>
<path d="M76.5125 122.481L30.49 93.4281L30.6917 93.114L76.7142 122.16L76.5125 122.481Z" fill="#1246FF" fill-opacity="0.4"/>
<path d="M154.034 62.6769L153.705 62.5048L185.286 2.55076L185.622 2.72281L154.034 62.6769Z" fill="#1246FF" fill-opacity="0.4"/>
<path d="M209.276 110.236L209.007 109.982L283.405 32.1126L283.681 32.367L209.276 110.236Z" fill="#1246FF" fill-opacity="0.4"/>
<path d="M134.317 163.825C135.415 163.825 136.305 162.934 136.305 161.835C136.305 160.736 135.415 159.845 134.317 159.845C133.22 159.845 132.33 160.736 132.33 161.835C132.33 162.934 133.22 163.825 134.317 163.825Z" fill="#1246FF"/>
<path d="M78.4924 122.369C78.4924 123.469 77.6033 124.359 76.5051 124.359C75.4068 124.359 74.5177 123.469 74.5177 122.369C74.5177 121.27 75.4068 120.379 76.5051 120.379C77.6033 120.379 78.4924 121.27 78.4924 122.369Z" fill="#1246FF"/>
<path d="M125.135 239.382C125.135 240.482 124.246 241.372 123.148 241.372C122.049 241.372 121.16 240.482 121.16 239.382C121.16 238.283 122.049 237.393 123.148 237.393C124.246 237.393 125.135 238.283 125.135 239.382Z" fill="#1246FF"/>
<path d="M47.868 242.584C47.868 243.684 46.9789 244.574 45.8806 244.574C44.7824 244.574 43.8933 243.684 43.8933 242.584C43.8933 241.484 44.7824 240.594 45.8806 240.594C46.9789 240.594 47.868 241.484 47.868 242.584Z" fill="#1246FF"/>
<path d="M107.144 315.726C108.242 315.726 109.132 314.835 109.132 313.736C109.132 312.637 108.242 311.746 107.144 311.746C106.047 311.746 105.157 312.637 105.157 313.736C105.157 314.835 106.047 315.726 107.144 315.726Z" fill="#1246FF"/>
<path d="M252.071 274.577C253.168 274.577 254.058 273.686 254.058 272.587C254.058 271.488 253.168 270.597 252.071 270.597C250.973 270.597 250.083 271.488 250.083 272.587C250.083 273.686 250.973 274.577 252.071 274.577Z" fill="#1246FF"/>
<path d="M250.375 210.015C250.375 211.115 249.486 212.005 248.387 212.005C247.289 212.005 246.4 211.115 246.4 210.015C246.4 208.915 247.289 208.025 248.387 208.025C249.486 208.025 250.375 208.915 250.375 210.015Z" fill="#1246FF"/>
<path d="M211.248 110.139C211.248 111.239 210.359 112.129 209.261 112.129C208.162 112.129 207.273 111.239 207.273 110.139C207.273 109.039 208.162 108.149 209.261 108.149C210.359 108.149 211.248 109.039 211.248 110.139Z" fill="#1246FF"/>
<path d="M301.156 129.498C301.156 130.597 300.267 131.488 299.169 131.488C298.071 131.488 297.182 130.597 297.182 129.498C297.182 128.398 298.071 127.508 299.169 127.508C300.267 127.508 301.156 128.398 301.156 129.498Z" fill="#1246FF"/>
<path d="M156.522 62.6769C156.522 63.7765 155.632 64.6666 154.534 64.6666C153.436 64.6666 152.547 63.7765 152.547 62.6769C152.547 61.5773 153.436 60.6871 154.534 60.6871C155.632 60.6871 156.522 61.5773 156.522 62.6769Z" fill="#1246FF"/>
<path d="M373.47 196.633C373.47 197.994 372.364 199.094 371.012 199.094C369.66 199.094 368.554 197.987 368.554 196.633C368.554 195.279 369.652 194.164 371.012 194.164C372.372 194.164 373.47 195.272 373.47 196.633Z" fill="var(--fill-0, #1246FF)"/>
<path d="M325.953 195.04C325.953 196.708 324.601 198.062 322.935 198.062C321.269 198.062 319.917 196.708 319.917 195.04C319.917 193.372 321.269 192.018 322.935 192.018C324.601 192.018 325.953 193.372 325.953 195.04Z" fill="var(--fill-0, #1246FF)"/>
<path d="M246.729 314.499C246.729 316.167 245.376 317.521 243.71 317.521C242.044 317.521 240.692 316.167 240.692 314.499C240.692 312.831 242.044 311.477 243.71 311.477C245.376 311.477 246.729 312.831 246.729 314.499Z" fill="var(--fill-0, #1246FF)"/>
<path d="M337.302 288.348C337.302 290.016 335.95 291.37 334.284 291.37C332.618 291.37 331.265 290.016 331.265 288.348C331.265 286.68 332.618 285.326 334.284 285.326C335.95 285.326 337.302 286.68 337.302 288.348Z" fill="var(--fill-0, #1246FF)"/>
<path d="M267.476 355.767C267.476 356.987 266.49 357.974 265.272 357.974C264.055 357.974 263.068 356.987 263.068 355.767C263.068 354.548 264.055 353.561 265.272 353.561C266.49 353.561 267.476 354.548 267.476 355.767Z" fill="var(--fill-0, #1246FF)"/>
<path d="M186.563 369C186.563 369.928 185.816 370.676 184.89 370.676C183.963 370.676 183.216 369.928 183.216 369C183.216 368.072 183.963 367.324 184.89 367.324C185.816 367.324 186.563 368.072 186.563 369Z" fill="var(--fill-0, #1246FF)"/>
<path d="M157.186 364.766C157.186 366.434 155.834 367.788 154.168 367.788C152.502 367.788 151.15 366.434 151.15 364.766C151.15 363.098 152.502 361.744 154.168 361.744C155.834 361.744 157.186 363.098 157.186 364.766Z" fill="var(--fill-0, #1246FF)"/>
<path d="M98.2388 346.604C98.2388 347.666 97.3796 348.519 96.3261 348.519C95.2727 348.519 94.4135 347.659 94.4135 346.604C94.4135 345.549 95.2727 344.689 96.3261 344.689C97.3796 344.689 98.2388 345.549 98.2388 346.604Z" fill="var(--fill-0, #1246FF)"/>
<path d="M129.894 297.257C129.894 298.925 128.542 300.279 126.876 300.279C125.21 300.279 123.857 298.925 123.857 297.257C123.857 295.589 125.21 294.235 126.876 294.235C128.542 294.235 129.894 295.589 129.894 297.257Z" fill="var(--fill-0, #1246FF)"/>
<path d="M52.8438 301.401C52.8438 303.069 51.4915 304.423 49.8254 304.423C48.1593 304.423 46.807 303.069 46.807 301.401C46.807 299.733 48.1593 298.379 49.8254 298.379C51.4915 298.379 52.8438 299.733 52.8438 301.401Z" fill="var(--fill-0, #1246FF)"/>
<path d="M30.5124 274.599C30.5124 275.609 29.6905 276.432 28.6819 276.432C27.6733 276.432 26.859 275.617 26.859 274.599C26.859 273.582 27.6733 272.767 28.6819 272.767C29.6905 272.767 30.5124 273.582 30.5124 274.599Z" fill="var(--fill-0, #1246FF)"/>
<path d="M191.517 193.289C191.517 194.957 190.164 196.311 188.498 196.311C186.832 196.311 185.48 194.957 185.48 193.289C185.48 191.621 186.832 190.267 188.498 190.267C190.164 190.267 191.517 191.621 191.517 193.289Z" fill="var(--fill-0, #1246FF)"/>
<path d="M62.9 193.656C62.9 195.324 61.5477 196.678 59.8816 196.678C58.2156 196.678 56.8633 195.324 56.8633 193.656C56.8633 191.988 58.2156 190.634 59.8816 190.634C61.5477 190.634 62.9 191.988 62.9 193.656Z" fill="var(--fill-0, #1246FF)"/>
<path d="M3.61606 193.02C3.61606 194.022 2.80917 194.83 1.80803 194.83C0.806889 194.83 0 194.022 0 193.02C0 192.018 0.806889 191.21 1.80803 191.21C2.80917 191.21 3.61606 192.018 3.61606 193.02Z" fill="var(--fill-0, #1246FF)"/>
<path d="M37.737 99.5544C37.737 101.223 36.3847 102.576 34.7187 102.576C33.0526 102.576 31.7003 101.223 31.7003 99.5544C31.7003 97.8864 33.0526 96.5324 34.7187 96.5324C36.3847 96.5324 37.737 97.8864 37.737 99.5544Z" fill="var(--fill-0, #1246FF)"/>
<path d="M133.899 72.7827C133.899 74.4508 132.546 75.8047 130.88 75.8047C129.214 75.8047 127.862 74.4508 127.862 72.7827C127.862 71.1146 129.214 69.7607 130.88 69.7607C132.546 69.7607 133.899 71.1146 133.899 72.7827Z" fill="var(--fill-0, #1246FF)"/>
<path d="M107.107 18.7081C107.107 20.3762 105.755 21.7301 104.089 21.7301C102.423 21.7301 101.07 20.3762 101.07 18.7081C101.07 17.04 102.423 15.6861 104.089 15.6861C105.755 15.6861 107.107 17.04 107.107 18.7081Z" fill="var(--fill-0, #1246FF)"/>
<path d="M188.072 2.21415C188.072 3.43343 187.079 4.4283 185.861 4.4283C184.643 4.4283 183.649 3.43343 183.649 2.21415C183.649 0.994871 184.636 0 185.861 0C187.086 0 188.072 0.994871 188.072 2.21415Z" fill="var(--fill-0, #1246FF)"/>
<path d="M226.25 10.2853C226.25 11.9534 224.898 13.3073 223.232 13.3073C221.566 13.3073 220.214 11.9534 220.214 10.2853C220.214 8.61723 221.566 7.26331 223.232 7.26331C224.898 7.26331 226.25 8.61723 226.25 10.2853Z" fill="var(--fill-0, #1246FF)"/>
<path d="M256.942 85.9479C256.942 87.616 255.59 88.9699 253.924 88.9699C252.257 88.9699 250.905 87.616 250.905 85.9479C250.905 84.2798 252.257 82.9259 253.924 82.9259C255.59 82.9259 256.942 84.2798 256.942 85.9479Z" fill="var(--fill-0, #1246FF)"/>
<path d="M282.942 34.1398C284.369 34.1398 285.527 32.981 285.527 31.5516C285.527 30.1222 284.369 28.9635 282.942 28.9635C281.514 28.9635 280.357 30.1222 280.357 31.5516C280.357 32.981 281.514 34.1398 282.942 34.1398Z" fill="var(--fill-0, #1246FF)"/>
<path d="M317.055 90.3912C317.055 92.0593 315.703 93.4132 314.037 93.4132C312.371 93.4132 311.018 92.0593 311.018 90.3912C311.018 88.7231 312.371 87.3691 314.037 87.3691C315.703 87.3691 317.055 88.7231 317.055 90.3912Z" fill="var(--fill-0, #1246FF)"/>
<path d="M334.418 85.0578C335.594 85.0578 336.548 84.1033 336.548 82.9259C336.548 81.7485 335.594 80.794 334.418 80.794C333.242 80.794 332.289 81.7485 332.289 82.9259C332.289 84.1033 333.242 85.0578 334.418 85.0578Z" fill="var(--fill-0, #1246FF)"/>
<path d="M353.515 108.606C353.515 110.274 352.162 111.628 350.496 111.628C348.83 111.628 347.478 110.274 347.478 108.606C347.478 106.937 348.83 105.584 350.496 105.584C352.162 105.584 353.515 106.937 353.515 108.606Z" fill="var(--fill-0, #1246FF)"/>
<path d="M32.6641 92.7624C32.6641 93.9069 31.7376 94.8344 30.5945 94.8344C29.4515 94.8344 28.525 93.9069 28.525 92.7624C28.525 91.6179 29.4515 90.6904 30.5945 90.6904C31.7376 90.6904 32.6641 91.6179 32.6641 92.7624Z" fill="var(--fill-0, #1246FF)"/>
<path d="M22.055 114.201C22.055 115.211 21.2331 116.033 20.2245 116.033C19.2159 116.033 18.3941 115.211 18.3941 114.201C18.3941 113.191 19.2159 112.368 20.2245 112.368C21.2331 112.368 22.055 113.191 22.055 114.201Z" fill="var(--fill-0, #1246FF)"/>
</g>
</svg>
