<svg preserveAspectRatio="none" width="100%" height="100%" overflow="visible" style="display: block;" viewBox="0 0 10 8" fill="none" xmlns="http://www.w3.org/2000/svg">
<path id="Openwork Logomark" fill-rule="evenodd" clip-rule="evenodd" d="M4.6875 0C6.41 0 7.86327 1.15275 8.31792 2.72888C8.90419 2.74339 9.375 3.2232 9.375 3.81297C9.375 4.40977 8.8929 4.89397 8.2969 4.89737C7.81983 6.43737 6.3843 7.55597 4.6875 7.55597C2.9907 7.55597 1.55517 6.43737 1.0781 4.89737C0.4821 4.89397 0 4.40977 0 3.81297C0 3.2232 0.470805 2.74339 1.05708 2.72888C1.51173 1.15275 2.965 0 4.6875 0ZM1.34014 2.75887C1.77643 1.324 3.11003 0.279851 4.6875 0.279851C6.26497 0.279851 7.59857 1.324 8.03486 2.75887C7.55935 2.87381 7.20616 3.30214 7.20616 3.81297C7.20616 4.31646 7.54929 4.7398 8.01446 4.86192C7.55819 6.26331 6.24112 7.27612 4.6875 7.27612C3.13388 7.27612 1.81681 6.26331 1.36054 4.86192C1.82571 4.7398 2.16884 4.31646 2.16884 3.81297C2.16884 3.30214 1.81565 2.87381 1.34014 2.75887Z" fill="var(--fill-0, white)"/>
</svg>
