<svg preserveAspectRatio="none" width="100%" height="100%" overflow="visible" style="display: block;" viewBox="0 0 70 77" fill="none" xmlns="http://www.w3.org/2000/svg">
<path id="Icon" d="M26.4247 69.6365L31.7933 72.6191C32.827 73.1934 33.3438 73.4805 33.8912 73.5931C34.3756 73.6927 34.8752 73.6927 35.3596 73.5931C35.907 73.4805 36.4238 73.1934 37.4575 72.6191L42.8261 69.6365M10.0234 60.5247L4.82225 57.6352C3.73059 57.0287 3.18471 56.7254 2.78725 56.2941C2.43562 55.9126 2.16952 55.4603 2.00673 54.9676C1.82273 54.4107 1.82273 53.7863 1.82273 52.5375V46.8569M1.82273 28.6332V22.9527C1.82273 21.7039 1.82273 21.0794 2.00673 20.5225C2.16952 20.0298 2.43562 19.5776 2.78725 19.196C3.18471 18.7647 3.73057 18.4615 4.82224 17.855L10.0234 14.9655M26.4247 5.8536L31.7933 2.87105C32.827 2.29679 33.3438 2.00966 33.8912 1.89709C34.3756 1.79746 34.8752 1.79746 35.3596 1.89709C35.907 2.00966 36.4238 2.29679 37.4575 2.87105L42.8261 5.8536M59.2274 14.9655L64.4285 17.855C65.5202 18.4615 66.0661 18.7647 66.4635 19.196C66.8152 19.5776 67.0813 20.0298 67.244 20.5225C67.4281 21.0794 67.4281 21.7039 67.4281 22.9527V28.6332M67.4281 46.8569V52.5375C67.4281 53.7863 67.4281 54.4107 67.244 54.9676C67.0813 55.4603 66.8152 55.9126 66.4635 56.2941C66.0661 56.7254 65.5202 57.0287 64.4285 57.6352L59.2274 60.5247M26.4247 33.1892L34.6254 37.7451M34.6254 37.7451L42.8261 33.1892M34.6254 37.7451V46.8569M1.82273 19.5214L10.0234 24.0773M59.2274 24.0773L67.428 19.5214M34.6254 65.0806V74.1925" stroke="var(--stroke-0, #1246FF)" stroke-width="3.64474" stroke-linecap="round" stroke-linejoin="round"/>
</svg>
