<svg width="16" height="16" viewBox="0 0 16 16" fill="none" xmlns="http://www.w3.org/2000/svg">
<circle cx="8" cy="8" r="7.5" fill="#1246FF" stroke="#1246FF"/>
<path fill-rule="evenodd" clip-rule="evenodd" d="M8 4C9.37867 4 10.5426 4.92221 10.9063 6.18311C11.3753 6.19471 11.75 6.57856 11.75 7.05038C11.75 7.52782 11.3666 7.91518 10.8911 7.9179C10.5095 9.15002 9.36085 10.0448 8 10.0448C6.63915 10.0448 5.4905 9.15002 5.10888 7.9179C4.63337 7.91518 4.25 7.52782 4.25 7.05038C4.25 6.57856 4.62467 6.19471 5.09368 6.18311C5.45738 4.92221 6.62133 4 8 4ZM5.31776 6.20709C5.66686 5.0592 6.73437 4.22388 8 4.22388C9.26563 4.22388 10.3331 5.0592 10.6822 6.20709C10.3016 6.29905 10.019 6.64171 10.019 7.05038C10.019 7.45317 10.2937 7.79184 10.6683 7.88954C10.3031 9.01065 9.24908 9.82088 8 9.82088C6.75092 9.82088 5.69691 9.01065 5.33172 7.88954C5.70629 7.79184 5.98099 7.45317 5.98099 7.05038C5.98099 6.64171 5.69844 6.29905 5.31776 6.20709Z" fill="white"/>
</svg>
