<svg preserveAspectRatio="none" width="100%" height="100%" overflow="visible" style="display: block;" viewBox="0 0 15 15" fill="none" xmlns="http://www.w3.org/2000/svg">
<path id="Icon" d="M0.5 7.16667H13.8333M0.5 7.16667C0.5 10.8486 3.48477 13.8333 7.16667 13.8333M0.5 7.16667C0.5 3.48477 3.48477 0.5 7.16667 0.5M13.8333 7.16667C13.8333 10.8486 10.8486 13.8333 7.16667 13.8333M13.8333 7.16667C13.8333 3.48477 10.8486 0.5 7.16667 0.5M7.16667 0.5C8.83419 2.32557 9.78184 4.69469 9.83333 7.16667C9.78184 9.63864 8.83419 12.0078 7.16667 13.8333M7.16667 0.5C5.49915 2.32557 4.5515 4.69469 4.5 7.16667C4.5515 9.63864 5.49915 12.0078 7.16667 13.8333" stroke="var(--stroke-0, #535353)" stroke-linecap="round" stroke-linejoin="round"/>
</svg>
