<svg preserveAspectRatio="none" width="100%" height="100%" overflow="visible" style="display: block;" viewBox="0 0 13 15" fill="none" xmlns="http://www.w3.org/2000/svg">
<path id="Icon" d="M2.83333 12.5H1.83333C1.09695 12.5 0.5 11.903 0.5 11.1667V1.83333C0.5 1.09695 1.09695 0.5 1.83333 0.5H11.1667C11.903 0.5 12.5 1.09695 12.5 1.83333V11.1667C12.5 11.903 11.903 12.5 11.1667 12.5H10.1667M6.5 11.8333C7.60457 11.8333 8.5 10.9379 8.5 9.83333C8.5 8.72876 7.60457 7.83333 6.5 7.83333C5.39543 7.83333 4.5 8.72876 4.5 9.83333C4.5 10.9379 5.39543 11.8333 6.5 11.8333ZM6.5 11.8333L6.51429 11.8332L4.38578 13.9617L2.50016 12.0761L4.5131 10.0632M6.5 11.8333L8.62854 13.9617L10.5142 12.0761L8.50122 10.0632M4.5 3.16667H8.5M3.16667 5.5H9.83333" stroke="var(--stroke-0, #535353)" stroke-linecap="round" stroke-linejoin="round"/>
</svg>
