<svg preserveAspectRatio="none" width="100%" height="100%" overflow="visible" style="display: block;" viewBox="0 0 13 15" fill="none" xmlns="http://www.w3.org/2000/svg">
<path id="Icon" d="M5.00015 12.904L5.98213 13.4496C6.1712 13.5546 6.26573 13.6071 6.36585 13.6277C6.45445 13.6459 6.54584 13.6459 6.63445 13.6277C6.73456 13.6071 6.8291 13.5546 7.01817 13.4496L8.00015 12.904M2.00015 11.2374L1.04879 10.7088C0.849118 10.5979 0.749269 10.5424 0.676568 10.4635C0.612251 10.3937 0.563578 10.311 0.533803 10.2209C0.500146 10.119 0.500146 10.0048 0.500146 9.7764V8.73736M0.500146 5.40403V4.36499C0.500146 4.13656 0.500146 4.02235 0.533803 3.92048C0.563578 3.83037 0.612251 3.74764 0.676568 3.67785C0.74927 3.59896 0.849113 3.54349 1.04879 3.43256L2.00015 2.90403M5.00015 1.23736L5.98213 0.691816C6.1712 0.586777 6.26573 0.534258 6.36585 0.513668C6.45445 0.495444 6.54584 0.495444 6.63445 0.513668C6.73456 0.534258 6.8291 0.586777 7.01817 0.691816L8.00015 1.23736M11.0001 2.90403L11.9515 3.43256C12.1512 3.54349 12.251 3.59896 12.3237 3.67785C12.388 3.74764 12.4367 3.83036 12.4665 3.92048C12.5001 4.02235 12.5001 4.13656 12.5001 4.36499V5.40403M12.5001 8.73736V9.7764C12.5001 10.0048 12.5001 10.119 12.4665 10.2209C12.4367 10.311 12.388 10.3937 12.3237 10.4635C12.251 10.5424 12.1512 10.5979 11.9515 10.7088L11.0001 11.2374M5.00015 6.23736L6.50015 7.07069M6.50015 7.07069L8.00015 6.23736M6.50015 7.07069V8.73736M0.500146 3.73736L2.00015 4.57069M11.0001 4.57069L12.5001 3.73736M6.50015 12.0707V13.7374" stroke="var(--stroke-0, #535353)" stroke-linecap="round" stroke-linejoin="round"/>
</svg>
