<svg preserveAspectRatio="none" width="100%" height="100%" overflow="visible" style="display: block;" viewBox="0 0 15 15" fill="none" xmlns="http://www.w3.org/2000/svg">
<path id="Icon" d="M1.83333 11.1667V11.0333C1.83333 9.91323 1.83333 9.35318 2.05132 8.92535C2.24307 8.54903 2.54903 8.24307 2.92535 8.05132C3.35318 7.83333 3.91323 7.83333 5.03333 7.83333H9.3C10.4201 7.83333 10.9802 7.83333 11.408 8.05132C11.7843 8.24307 12.0903 8.54903 12.282 8.92535C12.5 9.35318 12.5 9.91323 12.5 11.0333V11.1667M1.83333 11.1667C1.09695 11.1667 0.5 11.7636 0.5 12.5C0.5 13.2364 1.09695 13.8333 1.83333 13.8333C2.56971 13.8333 3.16667 13.2364 3.16667 12.5C3.16667 11.7636 2.56971 11.1667 1.83333 11.1667ZM12.5 11.1667C11.7636 11.1667 11.1667 11.7636 11.1667 12.5C11.1667 13.2364 11.7636 13.8333 12.5 13.8333C13.2364 13.8333 13.8333 13.2364 13.8333 12.5C13.8333 11.7636 13.2364 11.1667 12.5 11.1667ZM7.16667 11.1667C6.43029 11.1667 5.83333 11.7636 5.83333 12.5C5.83333 13.2364 6.43029 13.8333 7.16667 13.8333C7.90305 13.8333 8.5 13.2364 8.5 12.5C8.5 11.7636 7.90305 11.1667 7.16667 11.1667ZM7.16667 11.1667V4.5M3.16667 4.5H11.1667C11.7879 4.5 12.0986 4.5 12.3436 4.39851C12.6703 4.26318 12.9298 4.00362 13.0652 3.67691C13.1667 3.43188 13.1667 3.12126 13.1667 2.5C13.1667 1.87874 13.1667 1.56812 13.0652 1.32309C12.9298 0.996385 12.6703 0.73682 12.3436 0.601494C12.0986 0.5 11.7879 0.5 11.1667 0.5H3.16667C2.54541 0.5 2.23478 0.5 1.98976 0.601494C1.66305 0.73682 1.40349 0.996385 1.26816 1.32309C1.16667 1.56812 1.16667 1.87874 1.16667 2.5C1.16667 3.12126 1.16667 3.43188 1.26816 3.67691C1.40349 4.00362 1.66305 4.26318 1.98976 4.39851C2.23478 4.5 2.54541 4.5 3.16667 4.5Z" stroke="var(--stroke-0, #535353)" stroke-linecap="round" stroke-linejoin="round"/>
</svg>
