<svg preserveAspectRatio="none" width="100%" height="100%" overflow="visible" style="display: block;" viewBox="0 0 17 14" fill="none" xmlns="http://www.w3.org/2000/svg">
<g id="Group">
<path id="Vector" d="M8.20174 2.01087L7.38718 1.1963C6.45877 0.267898 4.95355 0.267898 4.02515 1.1963L1.1963 4.05387C0.267898 4.98227 0.267898 6.48749 1.1963 7.41587L1.91534 8.1349M6.77827 3.47368L1.95296 8.28924C1.55137 8.69081 1.55137 9.3419 1.95296 9.74346C2.35452 10.145 3.00562 10.145 3.40721 9.74346L7.07752 6.07312M10.304 8.66368L7.95449 11.0132C7.55293 11.4148 7.55293 12.0659 7.95449 12.4674C8.35609 12.869 9.00715 12.869 9.40874 12.4674L14.8662 7.00993C15.7946 6.08152 15.7946 4.57631 14.8662 3.64793L12.4184 1.20015C11.49 0.271742 9.9848 0.271742 9.05643 1.20015L8.3208 1.9343" stroke="var(--stroke-0, #535353)" stroke-miterlimit="10"/>
<path id="Vector_2" d="M8.70408 7.35507L5.27696 10.7822C4.87539 11.1838 4.87539 11.8349 5.27696 12.2365C5.67855 12.638 6.32961 12.638 6.73121 12.2365L10.3712 8.59648" stroke="var(--stroke-0, #535353)" stroke-miterlimit="10"/>
<path id="Vector_3" d="M7.0978 6.0529L3.61495 9.53574C3.21339 9.93731 3.21339 10.5884 3.61495 10.99C4.01652 11.3916 4.66761 11.3916 5.06917 10.99L8.71483 7.34434M6.44661 3.14409L8.71886 5.43434C9.12042 5.8359 9.77152 5.8359 10.1731 5.43434C10.5747 5.03277 10.5747 4.38168 10.1731 3.98009L7.56442 1.3714" stroke="var(--stroke-0, #535353)" stroke-miterlimit="10"/>
</g>
</svg>
